<?xml version="1.0" encoding="UTF-8"?>
<svg id="Layer_1" xmlns="http://www.w3.org/2000/svg" width="2500" height="2376" version="1.1" viewBox="0 0 2500 2376">
  <!-- Generator: Adobe Illustrator 29.0.1, SVG Export Plug-In . SVG Version: 2.1.0 Build 192)  -->
  <g>
    <path d="M2155,1629.9c-1.2-8.9-9.5-15.2-18.4-13.9-5.2.7-9.5,3.8-11.9,8-1.7,3-2.5,6.6-2,10.4.9,6.7,1.6,13.7,2.1,20.7.6,9,8.4,15.8,17.3,15.2,9-.6,15.8-8.4,15.2-17.3-.5-7.8-1.3-15.5-2.3-23Z" fill="#e9f0f7"/>
    <path d="M2133.9,1848.9c-7.7-.5-14.6,3.5-18.2,9.7-1.4,2.5-2.3,5.3-2.5,8.4-1.3,18.2-4.4,36.5-9.2,54.5-2.8,10.4,3.3,21,13.7,23.8,10.4,2.8,21-3.3,23.8-13.7,5.5-20.5,9-41.3,10.5-62,.7-10.7-7.3-20-18-20.7Z" fill="#e9f0f7"/>
    <path d="M1479.9,2320c-83.7,13-170.2,18.7-257,16.8-7.3-.2-13.8,3.8-17.2,9.7-1.6,2.7-2.5,5.9-2.6,9.3-.2,10.7,8.3,19.6,19,19.8,89.1,1.9,177.8-3.9,263.8-17.3,10.6-1.6,17.9-11.6,16.2-22.2-1.6-10.6-11.6-17.9-22.2-16.2Z" fill="#e9f0f7"/>
    <path d="M1659.1,2279.2c-29.4,9-59.9,17-90.7,24-5.5,1.2-9.9,4.7-12.6,9.2-2.4,4.1-3.2,9-2.1,14,2.4,10.5,12.7,17,23.2,14.7,31.7-7.1,63.2-15.5,93.5-24.7,10.3-3.1,16-14,12.9-24.3-3.1-10.3-14-16-24.3-12.9Z" fill="#e9f0f7"/>
    <path d="M796.4,2260.9c-27.9-10.2-55-21.4-80.6-33.3-9.2-4.3-20-.8-25,7.9-.3.5-.5,1-.8,1.5-4.5,9.7-.3,21.3,9.4,25.8,26.6,12.4,54.7,24.1,83.7,34.6,10.1,3.7,21.2-1.5,24.9-11.6,3.7-10.1-1.5-21.2-11.6-24.9Z" fill="#e9f0f7"/>
    <path d="M1689.4,1065.6c-1.7-1.7-4.4-1.7-6.1,0l-6.1,6.1c-1.7,1.7-1.7,4.4,0,6.1,1.7,1.7,4.4,1.7,6.1,0l6.1-6.1c1.7-1.7,1.7-4.4,0-6.1Z" fill="#e9f0f7"/>
    <path d="M1683.4,1091.8c0,2.4,1.9,4.3,4.3,4.3h8.6c2.4,0,4.3-1.9,4.3-4.3s-1.9-4.3-4.3-4.3h-8.6c-2.4,0-4.3,1.9-4.3,4.3Z" fill="#e9f0f7"/>
    <path d="M1663.7,1112.1c-2.4,0-4.3,1.9-4.3,4.3v8.6c0,2.4,1.9,4.3,4.3,4.3s4.3-1.9,4.3-4.3v-8.6c0-2.4-1.9-4.3-4.3-4.3Z" fill="#e9f0f7"/>
    <path d="M1637.3,1118.6c1.7,1.7,4.4,1.7,6.1,0l6.1-6.1c1.7-1.7,1.7-4.4,0-6.1s-4.4-1.7-6.1,0l-6.1,6.1c-1.7,1.7-1.7,4.4,0,6.1Z" fill="#e9f0f7"/>
    <path d="M1630.5,1096.7h8.6c2.4,0,4.3-1.9,4.3-4.3s-1.9-4.3-4.3-4.3h-8.6c-2.4,0-4.3,1.9-4.3,4.3s1.9,4.3,4.3,4.3Z" fill="#e9f0f7"/>
    <path d="M1663.1,1072.1c2.4,0,4.3-1.9,4.3-4.3v-8.6c0-2.4-1.9-4.3-4.3-4.3s-4.3,1.9-4.3,4.3v8.6c0,2.4,1.9,4.3,4.3,4.3Z" fill="#e9f0f7"/>
    <path d="M710.9,474.9l-6.1,6.1c-1.7,1.7-1.7,4.4,0,6.1,1.7,1.7,4.4,1.7,6.1,0l6.1-6.1c1.7-1.7,1.7-4.4,0-6.1-1.7-1.7-4.4-1.7-6.1,0Z" fill="#e9f0f7"/>
    <path d="M710.9,501.1c0,2.4,1.9,4.3,4.3,4.3h8.6c2.4,0,4.3-1.9,4.3-4.3s-1.9-4.3-4.3-4.3h-8.6c-2.4,0-4.3,1.9-4.3,4.3Z" fill="#e9f0f7"/>
    <path d="M691.3,521.4c-2.4,0-4.3,1.9-4.3,4.3v8.6c0,2.4,1.9,4.3,4.3,4.3h0c2.4,0,4.3-1.9,4.3-4.3v-8.6c0-2.4-1.9-4.3-4.3-4.3Z" fill="#e9f0f7"/>
    <path d="M671,527.9l6.1-6.1c1.7-1.7,1.7-4.4,0-6.1-1.7-1.7-4.4-1.7-6.1,0l-6.1,6.1c-1.7,1.7-1.7,4.4,0,6.1,1.7,1.7,4.4,1.7,6.1,0Z" fill="#e9f0f7"/>
    <path d="M670.9,501.7c0-2.4-1.9-4.3-4.3-4.3h-8.6c-2.4,0-4.3,1.9-4.3,4.3s1.9,4.3,4.3,4.3h8.6c2.4,0,4.3-1.9,4.3-4.3Z" fill="#e9f0f7"/>
    <path d="M690.6,481.4c2.4,0,4.3-1.9,4.3-4.3v-8.6c0-2.4-1.9-4.3-4.3-4.3s-4.3,1.9-4.3,4.3v8.6c0,2.4,1.9,4.3,4.3,4.3Z" fill="#e9f0f7"/>
    <path d="M146.7,797.4c6.4,0,11.5-5.2,11.5-11.5v-23.1c0-6.4-5.2-11.5-11.5-11.5s-11.5,5.2-11.5,11.5v23.1c0,6.4,5.2,11.5,11.5,11.5Z" fill="#e9f0f7"/>
    <path d="M201.2,812.5l16.3-16.3c4.5-4.5,4.5-11.8,0-16.3-4.5-4.5-11.8-4.5-16.3,0l-16.3,16.3c-4.5,4.5-4.5,11.8,0,16.3s11.8,4.5,16.3,0Z" fill="#e9f0f7"/>
    <path d="M202.4,888.4c-4.5-4.5-11.8-4.5-16.3,0h0c-4.5,4.5-4.5,11.8,0,16.3l16.3,16.3c4.5,4.5,11.8,4.5,16.3,0,4.5-4.5,4.5-11.8,0-16.3l-16.3-16.3Z" fill="#e9f0f7"/>
    <path d="M148.4,904.8c-6.4,0-11.5,5.2-11.5,11.5v23.1c0,6.4,5.2,11.5,11.5,11.5s11.5-5.2,11.5-11.5v-23.1c0-6.4-5.2-11.5-11.5-11.5Z" fill="#e9f0f7"/>
    <path d="M93.9,889.6l-16.3,16.3c-4.5,4.5-4.5,11.8,0,16.3,4.5,4.5,11.8,4.5,16.3,0l16.3-16.3c4.5-4.5,4.5-11.8,0-16.3-4.5-4.5-11.8-4.5-16.3,0Z" fill="#e9f0f7"/>
    <path d="M92.7,813.7c4.5,4.5,11.8,4.5,16.3,0,4.5-4.5,4.5-11.8,0-16.3l-16.3-16.3c-4.5-4.5-11.8-4.5-16.3,0h0c-4.5,4.5-4.5,11.8,0,16.3l16.3,16.3Z" fill="#e9f0f7"/>
    <path d="M2192.8,211.1c6.4,0,11.5-5.2,11.5-11.5v-23.1c0-6.4-5.2-11.5-11.5-11.5s-11.5,5.2-11.5,11.5v23.1c0,6.4,5.2,11.5,11.5,11.5Z" fill="#e9f0f7"/>
    <path d="M2247.3,226.2l16.3-16.3c4.5-4.5,4.5-11.8,0-16.3-4.5-4.5-11.8-4.5-16.3,0l-16.3,16.3c-4.5,4.5-4.5,11.8,0,16.3,4.5,4.5,11.8,4.5,16.3,0Z" fill="#e9f0f7"/>
    <path d="M2248.5,302.1c-4.5-4.5-11.8-4.5-16.3,0h0c-4.5,4.5-4.5,11.8,0,16.3l16.3,16.3c4.5,4.5,11.8,4.5,16.3,0h0c4.5-4.5,4.5-11.8,0-16.3l-16.3-16.3Z" fill="#e9f0f7"/>
    <path d="M2194.5,318.4c-6.4,0-11.5,5.2-11.5,11.5v23.1c0,6.4,5.2,11.5,11.5,11.5s11.5-5.2,11.5-11.5v-23.1c0-6.4-5.2-11.5-11.5-11.5Z" fill="#e9f0f7"/>
    <path d="M2140,303.3l-16.3,16.3c-4.5,4.5-4.5,11.8,0,16.3,4.5,4.5,11.8,4.5,16.3,0l16.3-16.3c4.5-4.5,4.5-11.8,0-16.3-4.5-4.5-11.8-4.5-16.3,0Z" fill="#e9f0f7"/>
    <path d="M2155.1,227.4c4.5-4.5,4.5-11.8,0-16.3l-16.3-16.3c-4.5-4.5-11.8-4.5-16.3,0h0c-4.5,4.5-4.5,11.8,0,16.3l16.3,16.3c4.5,4.5,11.8,4.5,16.3,0Z" fill="#e9f0f7"/>
    <polygon points="2174.9 224.9 2174.9 224.9 2174.9 224.9 2174.9 224.9" fill="#e9f0f7"/>
    <path d="M916.3,69.1c4.3,0,7.7-3.5,7.7-7.7v-15.4c0-4.3-3.5-7.7-7.7-7.7s-7.7,3.5-7.7,7.7v15.4c0,4.3,3.5,7.7,7.7,7.7Z" fill="#e9f0f7"/>
    <path d="M952.7,79.2l10.9-10.9c3-3,3-7.9,0-10.9-3-3-7.9-3-10.9,0l-10.9,10.9c-3,3-3,7.9,0,10.9,3,3,7.9,3,10.9,0Z" fill="#e9f0f7"/>
    <path d="M953.5,130c-3-3-7.9-3-10.9,0-3,3-3,7.9,0,10.9l10.9,10.9c3,3,7.9,3,10.9,0s3-7.9,0-10.9l-10.9-10.9Z" fill="#e9f0f7"/>
    <path d="M917.4,141c-4.3,0-7.7,3.5-7.7,7.7v15.4c0,4.3,3.5,7.7,7.7,7.7s7.7-3.5,7.7-7.7v-15.4c0-4.3-3.5-7.7-7.7-7.7Z" fill="#e9f0f7"/>
    <path d="M880.9,130.8l-10.9,10.9c-3,3-3,7.9,0,10.9s7.9,3,10.9,0l10.9-10.9c3-3,3-7.9,0-10.9s-7.9-3-10.9,0Z" fill="#e9f0f7"/>
    <path d="M880.1,80c3,3,7.9,3,10.9,0s3-7.9,0-10.9l-10.9-10.9c-3-3-7.9-3-10.9,0-3,3-3,7.9,0,10.9l10.9,10.9Z" fill="#e9f0f7"/>
    <path d="M438,2076.2c4.3,0,7.7-3.5,7.7-7.7v-15.4c0-4.3-3.5-7.7-7.7-7.7s-7.7,3.5-7.7,7.7v15.4c0,4.3,3.5,7.7,7.7,7.7Z" fill="#e9f0f7"/>
    <path d="M486.2,2148l-10.9-10.9c-3-3-7.9-3-10.9,0-3,3-3,7.9,0,10.9l10.9,10.9c3,3,7.9,3,10.9,0h0c3-3,3-7.9,0-10.9Z" fill="#e9f0f7"/>
    <path d="M439.1,2148c-4.3,0-7.7,3.5-7.7,7.7v15.4c0,4.3,3.5,7.7,7.7,7.7s7.7-3.5,7.7-7.7v-15.4c0-4.3-3.5-7.7-7.7-7.7Z" fill="#e9f0f7"/>
    <path d="M402.7,2137.9l-10.9,10.9c-3,3-3,7.9,0,10.9h0c3,3,7.9,3,10.9,0l10.9-10.9c3-3,3-7.9,0-10.9-3-3-7.9-3-10.9,0Z" fill="#e9f0f7"/>
    <path d="M401.9,2087.1c3,3,7.9,3,10.9,0,3-3,3-7.9,0-10.9l-10.9-10.9c-3-3-7.9-3-10.9,0-3,3-3,7.9,0,10.9l10.9,10.9Z" fill="#e9f0f7"/>
    <path d="M2402.1,1310c4.3,0,7.7-3.5,7.7-7.7v-15.4c0-4.3-3.5-7.7-7.7-7.7s-7.7,3.5-7.7,7.7v15.4c0,4.3,3.5,7.7,7.7,7.7Z" fill="#e9f0f7"/>
    <path d="M2438.5,1320.1l10.9-10.9c3-3,3-7.9,0-10.9-3-3-7.9-3-10.9,0l-10.9,10.9c-3,3-3,7.9,0,10.9s7.9,3,10.9,0Z" fill="#e9f0f7"/>
    <path d="M2439.3,1370.9c-3-3-7.9-3-10.9,0s-3,7.9,0,10.9l10.9,10.9c3,3,7.9,3,10.9,0,3-3,3-7.9,0-10.9l-10.9-10.9Z" fill="#e9f0f7"/>
    <path d="M2403.2,1381.8c-4.3,0-7.7,3.5-7.7,7.7v15.4c0,4.3,3.5,7.7,7.7,7.7s7.7-3.5,7.7-7.7v-15.4c0-4.3-3.5-7.7-7.7-7.7Z" fill="#e9f0f7"/>
    <path d="M2366.7,1371.7l-10.9,10.9c-3,3-3,7.9,0,10.9,3,3,7.9,3,10.9,0l10.9-10.9c3-3,3-7.9,0-10.9-3-3-7.9-3-10.9,0Z" fill="#e9f0f7"/>
    <path d="M2355,1310l10.9,10.9c3,3,7.9,3,10.9,0,3-3,3-7.9,0-10.9l-10.9-10.9c-3-3-7.9-3-10.9,0s-3,7.9,0,10.9Z" fill="#e9f0f7"/>
    <path d="M2500,1356.5h0s-19-60.4-19-60.4l-5.3-16.9h0c0,0,0-.2,0-.2l-.2-.5v-.3c0,0-24.3-8.4-24.3-8.4l-84-29-48.5,70.2-359.1-121.8c21.1-88.4,22.8-181.3-1.9-269.1-7.8-27.7-18.1-54.6-30.9-80.3-11.1-23.6-52.8-89.1-70.4-118.1-.9-1.5-1.8-3-2.7-4.5-.3-.4-.5-.9-.8-1.3.2.3.4.6.5.9-40.5-66.6-99.1-123.6-175.4-165.8-65.1-36.1-137.7-58.4-213.8-67.9l205.5-57.9,24.9,40.6c47.5,14.1,93,33,135.9,56.8,21.5,11.9,41.9,24.9,61.1,38.7,19.2,13.8,37.3,28.5,54.1,44h0s0,0,0,0h0s104.1-91.5,104.1-91.5l-55-89.9c-26-23.8-54.3-46-85-66.3l157.8-44.5,14.5,46.1h0s.5,1.4.5,1.4l.3,1h0s0,0,0,0h0s158.5,54.9,158.5,54.9l1.2.4,1.8.6,1.8-2.6,92.2-133.3.6-.9h0s0,0,0,0h0s-36-114.4-36-114.4l-.8-2.4-3.1-1.1h0s-155.5-53.8-155.5-53.8l-1.2-.4-1.8-.7-92.8,134.2,5,1.7,87.9-127.1,13.7,43.4,20.4,64.8h0s.4,1.2.4,1.2l-.4-1.2-34.1,49.3-3.5-1.2c1.7-2,2.6-4.6,2.6-7.3,0-6.4-5.2-11.5-11.5-11.5h-23.1c-3.8,0-7.1,1.8-9.2,4.6l-48.2-16.7-1.1,1.6-.7,1,.8,2.4,19.4,61.6-161.4,45.5c-13.9-9-28.3-17.7-43.2-25.9-49.6-27.5-102.3-49.3-157.1-65.6l-65,113.1h0s27.8,45.4,27.8,45.4l-214.7,60.5c-6.4-.7-12.8-1.3-19.2-1.8l-53.4-30.9-56.9,12.8,4.3-18.3c17.6-2.6,35.3-4.7,53-6.3l16-117.6-55-89.9c-112.8,10.2-227.2,38-337.7,81.7l-47.1-112.3,57.8-83.6-24.5-77.8v-.4c-.1,0-41-14.1-41-14.1L881.4,0h0s0,0,0,0l-29.1,42.1-34.2,49.5,17,53.9,7.4,23.6h0c0,0,.2.7.2.7l12.2,4.2,96,33.2,2.5-3.6,45.9,109.6c-13.2,5.3-26.4,10.8-39.4,16.5l35.4,104.1s0,0,0,0l12.9,21-9.5,2.1,16.6,9.6h0s-16.6-9.6-16.6-9.6l-22.3,95.7,25.8,14.9c-35.7,17.4-70.6,37.1-104.2,59.2l-163.8-98.8,12.4-23.8.3-.6h0c0,0-22.2-45.7-22.2-45.7l-5.5-11.4h0s0,0,0,0l-.5-1-14.6,2.7-47.2,8.6-21.4,41.1,7.1,14.6,21.1,43.4h0s0,0,0,0l61.1-11.2h0s0,0,0,0h.7c0-.1.4-.8.4-.8l6.2-11.9,161.7,97.6c-8.2,5.4-16.3,11-24.4,16.7l-131.9,37.2-37.6-61.4c-4.3,3.8-8.6,7.6-12.8,11.5,4.2-3.9,8.5-7.7,12.8-11.5l-81.5-74.8c-49.5,43.6-96,91.3-138.6,142.8-22.8,27.6-43.9,55.6-63.3,83.9l-140.4,39.6-19.2-60.9-.8-2.4-3.1-1.1-156.8-54.2-1.8-.6L1.8,828.3l-1.1,1.6-.7,1,.8,2.4,35.6,113.2.4,1.2,3.1,1.1,155.5,53.8,1.2.4,1.8.6,1.8-2.6,91-131.6,1.8-2.6-15.5-49.2,135.1-38.1c-15.6,23-30,46.1-43.4,69.5l55,89.9,115.1,34.1c56.6-98.3,130.7-186.2,215.7-261.3l-15-24.5,118.8-33.5c-60.4,44.1-116.1,95.9-164.8,154.8-141.7,171.6-192.9,366.6-158.3,533-9.7,7.2-19.1,14.5-28.1,21.9-1.9,1.5-3.4,3.3-4.5,5.3-3.9,6.8-3.5,15.7,1.8,22.1,6.8,8.3,19.1,9.5,27.4,2.7,4.5-3.7,9.1-7.4,13.8-11,3,10.1,6.4,20,10.1,29.8-20.7,16.9-40.2,35.1-58.3,54.6-16.4,17.2-31.7,35.9-45.5,55.6-23.4-82.5-27.8-170-16.4-254.9l-55-89.9-131.1,11.8c-15.4,114.4-5.5,225.7,28.9,327l55,89.9,16.3-7.2c-10,40.6-12.1,81.8-6.2,123,1.3,8.9,9.6,15.1,18.5,13.8,8.9-1.3,15.1-9.6,13.8-18.5-6.5-45.4-2.2-90.8,12.8-135.4l36.2-15.9c-26,47.6-43.3,99.6-47.8,152.3-1.6,14.8-2.3,29.4-2.2,43.8-.7,1.3-1.3,2.7-1.7,4.2-5.6,20.5-9.1,41.3-10.6,62-.8,10.7,7.3,20.1,18.1,20.8,2,.1,3.9,0,5.7-.4,17.8,69.8,55.1,133.7,103.7,188.5l-86.4-29.9-1.2-.4h0s0,0,0,0l-63,91.1-.3.4,24.3,77.3v.2c0,0,.3.7.3.7l48.1,16.6,60,20.8h0s0,0,0,0l45.5-65.8c31.8,27.3,68.1,52.8,108.5,76.3l1.2.7c9.3,5.4,21.2,2.3,26.6-7,5.3-9.3,2.3-21.2-7-26.6l-1.2-.7c-43.6-25.3-82-53.1-114.8-82.8l-4.8-15.3,16.9-3.5c20,17.4,41.1,33.6,63,48.2,90.6,62.4,194.3,104.6,300.5,132.8,241.6,64.4,532,58.8,772.9-26.3l139.7,48.3h0s1.3.5,1.3.5l7.5-10.9,39.4-57c5.5,2.4,12,2.3,17.5-1,22.8-13.2,44.6-27.2,64.8-41.7,8.7-6.3,10.7-18.4,4.5-27.1-6.2-8.7-18.4-10.7-27.1-4.5-5.3,3.8-10.6,7.5-16.1,11.2l3.6-5.2-8.8-28c36.1-26,69.4-55.3,100.1-89.1,13.9-14.6,29.8-36.5,41.6-52.9,7.1-9.4,15.6-23.3,27.2-45,11.5-22.1,21.4-46.2,29-70.2l-.9,2.5c1.6-4.9,2.9-9.2,4.3-14,2-6.6,3.7-13.3,5.3-20,4.7-8.4,9-16.8,12.9-25.3,3.3-7.2,1-15.6-5.2-20.1,2.4-22.6,2.6-45.4.7-68,2.9-5.2,3.3-11.7.7-17.5-1.2-2.6-2.4-5.1-3.6-7.7-7.3-47.4-23.7-93.9-49.1-137.3-2.5-4.5-5-8.9-7.6-13.2,7.5-10.1,14.8-20.4,21.9-30.7,8.8,15.6,16.2,31.4,22.3,47.4,3.2,8.4,12.6,12.7,21,9.5,8.4-3.2,12.7-12.6,9.5-21-8.5-22.4-19.5-44.5-32.8-66,9.6-14.9,18.8-30,27.7-45.4h0s-55-89.9-55-89.9l-115.1-34.1c-14.2,24.6-29.7,48.9-46.6,73.1-9.6-7.1-19.3-14-29.2-20.6,6.2-10.7,12.1-21.5,17.7-32.4,7.6,4.6,17.4,2.3,22.2-5.2,4.9-7.6,2.6-17.7-5-22.5-.9-.6-1.9-1.2-2.8-1.8,3-6.5,5.8-12.9,8.6-19.5,13.5-31.7,24.6-64.6,32.9-98.3l357.5,121.3-12.1,17.5,24.3,77.3h0s0,.2,0,.2h0s.2.7.2.7l66.5,23,40.4,14,1.2.4h0s0,0,0,0l56.3-81.4,7-10.2h0ZM2239.6,410.3l-150.6-52.1,53.8-77.9,62.6,21.7h0s0,0,0,0l2.5,7.9,31.6,100.5h0ZM2244.4,408.6l-21.1-67-13-41.2h0s0,0,0,0l33.2-48.1.9-1.2,8.5,3c-3.4,2-5.6,5.7-5.6,9.9h0c0,6.4,5.2,11.5,11.5,11.5h23.1c5,0,9.3-3.2,10.8-7.7l39.5,13.7-87.9,127.1ZM2332.3,276l-39-13.5c-.7-5.7-5.5-10.1-11.4-10.1h-17.9l-12.2-4.2-4.4-1.5,52-75.2,32.9,104.5ZM2145.7,114.9l150.6,52.1h0s0,0,0,0l-27.6,39.9-26.3,38-62.6-21.7h0l-34.1-108.3ZM2178.7,228.3l60.7,21-32.9,47.6h0s0,0,0,0l-38.3-13.3-22.3-7.7,32.9-47.6ZM2052.9,249.2l41.2,14.2c-.1.7-.2,1.4-.2,2.2,0,6.4,5.2,11.5,11.5,11.5h23.1c1.3,0,2.5-.2,3.6-.6l5.8,2-52,75.2h0s-32.9-104.6-32.9-104.6h0ZM950.8,201.2l-22.8-72.4,22.8-33,5.7,2c-2.2,1.3-3.8,3.8-3.8,6.6,0,4.3,3.5,7.7,7.7,7.7h15.4c3.3,0,6.2-2.1,7.3-5.1l26.4,9.1-24,34.7-34.8,50.3ZM1009.6,112.6l-26.1-9c-.5-3.8-3.7-6.8-7.6-6.8h-11.9l-11.1-3.8,34.7-50.3,22,69.9ZM985.5,39.7l-36,52.1-41.9-14.5-22.8-72.4,100.7,34.8ZM947.4,94.7l-22,31.8-40.5-14,22-31.8,40.5,14ZM904.3,78.3l-22.8,33-2.3-.8c1.1-1.3,1.8-3,1.8-4.9,0-4.3-3.5-7.7-7.7-7.7h-15.4c-2.5,0-4.7,1.2-6.2,3.1l-28.9-10,58.8-85,22.8,72.4ZM822.7,94.6l27.5,9.5c0,.5-.1.9-.1,1.4,0,4.3,3.5,7.7,7.7,7.7h15.4c.8,0,1.6-.1,2.4-.4l3.9,1.3-34.7,50.3-18-57.3-3.9-12.5ZM846.8,167.5l36-52.1,41.9,14.5,22.8,72.4-40.5-14-60.1-20.8ZM717.6,542.6l-49.9,9.1,18.7-35.9,21.1-3.9,1,2.1c-1.2,0-2.4.3-3.3,1.2-1.7,1.7-1.7,4.4,0,6.1l6.1,6.1c1.1,1.1,2.8,1.5,4.2,1.1l6.5,13.3-4.5.8ZM667.6,458l47.2-8.6-18.7,35.9-21.1,3.9-.3-.6c.7-.2,1.4-.5,1.9-1.1h0c1.7-1.7,1.7-4.4,0-6.1l-6.1-6.1c-.8-.8-1.8-1.2-2.9-1.2l-7.2-14.8,7.2-1.3ZM742.7,502.1l-33.3,6.1-10.4-21.4,18.8-36,18.8,38.6,6.2,12.7ZM706,508.8l-19.8,3.6-9.8-20.2,19.8-3.6,9.8,20.2ZM658,461.7l6.6,13.5s0,0,0,0c-1.7,1.7-1.7,4.4,0,6.1l6,6,1.2,2.4-31.2,5.7,15.8-30.2,1.8-3.5ZM639.8,498.9l33.3-6.1,10.4,21.4-18.8,36-16.8-34.6-8.1-16.7ZM724.5,539.3l-6.3-13c.8-1.6.6-3.6-.8-5l-3.2-3.2-3.3-6.8,31.2-5.7-13.1,25.1-4.5,8.6ZM286.2,862.4l-39-13.5c-.7-5.7-5.5-10.2-11.4-10.2h-17.9l-16.5-5.7,18.7-27,33.3-48.2,32.9,104.6ZM250.2,753.3l-44,63.7-9.8,14.2-62.6-21.7-6.6-21-27.5-87.3,150.6,52.1ZM193.3,835.6l-32.9,47.5-60.7-21,32.9-47.6,60.7,21ZM94.7,702.9l17.9,56.7,16.2,51.5-34.1,49.3-3.5-1.2c1.7-2,2.6-4.6,2.6-7.3h0c0-6.4-5.2-11.5-11.5-11.5h-23.1c-3.8,0-7.1,1.8-9.2,4.6l-43.2-14.9,87.9-127.2ZM6.8,835.5l41.1,14.2c-.1.7-.2,1.4-.2,2.2,0,6.4,5.2,11.5,11.5,11.5h23.1c1.3,0,2.5-.2,3.6-.6l5.8,2-52,75.2-32.9-104.5ZM42.9,944.5l53.8-77.9,32,11.1,30.6,10.6,6.6,21,27.5,87.3-150.6-52.1ZM198.3,994.9l-34.1-108.2,34.1-49.3,8.6,3c-3.4,2-5.6,5.7-5.6,9.9,0,6.4,5.2,11.5,11.5,11.5h23.1c5,0,9.3-3.2,10.8-7.7l39.6,13.7-87.9,127.1ZM469.1,2101.8l-22,31.8-40.5-14,22-31.8,40.5,14ZM517.2,2095l6-1.2,3.1,10c-3.1-2.9-6.1-5.8-9.1-8.7ZM513.3,2091.2c-6-6-11.8-12.1-17.4-18.2-.5-.6-1-1.1-1.6-1.5l11.9-17.3c2.2,2.2,4.3,4.5,6.5,6.7l9,28.6-8.5,1.7ZM495.6,2042.7c2.7,3,5.5,6,8.3,8.9l-12.3,17.7c-1.4-.8-2.9-1.5-4.4-1.9-.4-1.1-1-2.1-1.8-2.9-3-3-7.9-3-10.9,0l-10.9,10.9c-2.4,2.4-2.9,6.1-1.4,9-.3,4.3.7,8.7,3.3,12.4l-36.1-12.5-22.8-72.4,26,9,63.1,21.8ZM426,2085.4l-22.8,33-2.3-.8c1.1-1.3,1.8-3,1.8-4.9,0-4.3-3.5-7.7-7.7-7.7h-15.4c-2.5,0-4.7,1.2-6.2,3.1l-28.9-10,58.8-85,22.8,72.4ZM344.4,2101.7l27.5,9.5c0,.5-.1.9-.1,1.4,0,4.3,3.5,7.7,7.7,7.7h15.4c.8,0,1.6-.1,2.4-.4l3.9,1.3-34.7,50.2-14.9-47.3-7.1-22.5ZM368.6,2174.6l36-52.1,41.9,14.5,22.8,72.4-23-8-77.7-26.9ZM449.8,2135.9l22-31.9c1.2,1.3,2.4,2.6,3.6,3.8-.6,1.1-.9,2.3-.9,3.6,0,4.3,3.5,7.7,7.7,7.7h4.3c9.2,9.1,18.9,18.1,29,26.9l-42.9,62.1-22.8-72.4ZM1623.6,1225.1c17.6,4.7,34.9,9.8,51.9,15.3-4.8,8.3-9.9,16.5-15.3,24.7-49.8-16.6-100-29.3-149.1-39,3-25.8,1.9-52-3-77.4-8.5-44.3-28.5-87.3-60.3-119.6l36-8.1c1.6-.4,3.2-.8,4.8-1.2,8-2.2,15.6-5.5,22.8-9.8,2.2-1.3,4.3-2.7,6.3-4.1l102.1,61.7-3.6,6.8-7.3,14h0s0,0,0,0l16.3,33.6,11.2,23h0c0,.1.2.6.2.6h0s0,0,0,0l60.5-11h0s.4,0,.4,0l5-9.7,8-15.3,18.3,6.2c-8.3,29.9-19.8,60-34.5,89.7-19.8-6.4-40-12.5-60.5-18-8.7-2.4-17.6,1.6-22,9.1-.8,1.4-1.5,3-1.9,4.7-2.8,10.4,3.3,21.1,13.7,23.9ZM757.3,1265.6c8.1-3.2,16.3-6.3,24.6-9.3,10.1-3.7,15.3-14.9,11.6-25-3.7-10.1-14.9-15.3-25-11.6-2,.7-3.9,1.4-5.9,2.2,7.9-45.6,22.8-90.3,43.4-131.9,45.7-92.5,115.6-171.8,198.8-232.7l-43.8,187.8c-1.5-.9-6-3.5-6-3.5l-97.8,22,41.4,23.9-41.4-23.9-22.3,95.7,87.7,50.6,36.1,20.8c-45.9,9.9-91.3,22.4-135.4,37.7,1.3-.5,2.6-1,3.8-1.4-24.6,8.4-48,17.3-70.7,27,0-9.4.3-18.9,1-28.3ZM1187.5,1127.7l20-85.9,16.2,9.3c34.8,20.1,55.1,51.5,57.1,87.8-24.4-.4-48.8-.3-73.2.4-11.8-6.8-20.1-11.6-20.1-11.6ZM1277.7,773.5c44.1,25.5,62.5,65.5,51.4,113.4l-74.9-45.2,16.8-72,6.7,3.9ZM1903.1,2131.3l7.1,22.5-26.4-9.1c6.5-4.3,13-8.8,19.4-13.3ZM1710.9,1104.9l-16.7-5.7,21.8-4-3.9,7.6-1.1,2.1ZM1669.9,1137.7l-31.2,5.7,19.6-37.6,22.1-4,1.5,3.2c-1.4-.4-3.1,0-4.2,1.1-1.7,1.7-1.7,4.4,0,6.1l6.1,6.1c1.3,1.3,3.3,1.6,4.9.8l6.9,14.1-25.7,4.7ZM1679.6,1100.1l-21.3,3.9-9.1-18.7,12.7,7.7h.2c0,.1,16.9,5.8,16.9,5.8l.6,1.3ZM1681.3,1099.6h.3c0,.1-.3.2-.3.2v-.2ZM1664,1089l-12.2-7.4,17.3-3.2,7.1,14.7-12.2-4.1ZM1646.4,1083.6l10.4,21.4-19.6,37.7-26-53.6,34-6.2,1.3.8ZM1690.1,1117.8c1.4-1.7,1.3-4.2-.3-5.7l-4.9-4.9-2.8-5.7,2.9-.5,23.7,8-11.9,22.8-6.8-13.9ZM1690.7,1098.1l-12.2-4.1-8-16.5,19.6-37.7,26,53.6-25.5,4.7ZM1669,1076.7l-19.5,3.6-1.9-1.2c.5-.2,1-.5,1.4-.9,1.7-1.7,1.7-4.4,0-6.1l-6.1-6.1c-1-1-2.4-1.4-3.7-1.2l-7.5-15.4,56.9-10.4-19.6,37.6ZM1637.6,1065.5c-.2.2-.5.3-.7.6-1.7,1.7-1.7,4.4,0,6.1l1.4,1.4-15-9,7.1-13.7,7.1,14.7ZM1642.8,1081.5l-31.4,5.7,9.8-18.8,21.6,13.1ZM1712.6,1105.5l5.8-11,.2-.3-27.6-56.7-.2-.5h0s0,0,0,0l-26.4,4.8-34.5,6.3h0c0,.1,0,.1,0,.1l-8,15.4-100.4-60.6c27.1-21.2,42-55.1,49.6-88.2.6-2.7,1.2-5.4,1.7-8.1,10.9-54.5,2.8-108.6-21-156.2,64.2,22.1,122.5,58.6,166.3,109.8,31.2,75.4,35.5,162.7,11.9,251.2l-17.4-5.9ZM1685.5,2242.4c25.3-9.1,50.1-19.1,74.2-30v17.2c0,6.4,5.2,11.5,11.5,11.5s11.5-5.2,11.5-11.5v-23.1c0-1.6-.3-3.1-.9-4.5,2.5-1.2,4.9-2.4,7.4-3.6,0,0,0,0,0,0l28.2,89.5-104.8-36.3-27.1-9.4ZM1792.6,2196.8c4.5-2.2,9-4.5,13.4-6.8.5,1.8,1.5,3.5,2.9,5l16.3,16.3c4.5,4.5,11.8,4.5,16.3,0s4.5-11.8,0-16.3l-15.6-15.6c18.6-10.2,36.6-20.9,53.9-32.3l30.3,10.5-7,10.1c-12,7.9-24.4,15.5-37.2,22.9-3,1.8-5.4,4.2-7.1,7.1-3.4,5.8-3.6,13.2,0,19.5,1.5,2.6,3.5,4.6,5.8,6.2l-43.8,63.3-28.3-90ZM525.2,2088.7l-7.1-22.7c6.9,6.8,14,13.3,21.2,19.8l-14,2.9ZM2495.4,1353.4l-26.1-9c-.5-3.8-3.7-6.8-7.6-6.8h-11.9l-11.1-3.8,34.7-50.3,22,69.9ZM2471.3,1280.5l-36,52.1-41.9-14.5-22.8-72.4,79,27.3,21.6,7.5ZM2359,1338.7h-15.4c-2.5,0-4.7,1.2-6.2,3.1l-28.9-10,10.9-15.8,59,20-11.1,16.1-2.3-.8c1.1-1.3,1.8-3,1.8-4.9,0-4.3-3.5-7.7-7.7-7.7ZM2392.7,1321.5l40.5,14-22,31.8-40.5-14,22-31.8ZM2390.1,1319.2l-9,13-59-20,45.2-65.4,22.8,72.4ZM2336,1345c0,.5-.1.9-.1,1.4,0,4.3,3.5,7.7,7.7,7.7h15.4c.8,0,1.6-.1,2.4-.4l3.9,1.3-34.7,50.2-22-69.9,27.5,9.5ZM2332.7,1408.4l36-52.1,41.9,14.5,22.8,72.4-34.2-11.8-66.5-23ZM2413.8,1369.7l22.8-33,5.7,2c-2.2,1.3-3.8,3.8-3.8,6.6,0,4.3,3.5,7.7,7.7,7.7h15.4c3.3,0,6.2-2.1,7.3-5.1l26.4,9.1-58.8,85-22.8-72.4Z" fill="#e9f0f7"/>
    <path d="M2231.9,810c-3-10.8-6.4-21.6-10-32.2,0,0-55-89.9-55-89.9,0,0,0,0,0,0l-127.3,55.9c29.6,87.7,38,184,24.6,282.9l55,89.9,131.2-11.8s1.4-10.9,2-16.4c10.7-93,4.9-188.2-20.6-278.4Z" fill="#e9f0f7"/>
  </g>
  <g id="defi">
    <g>
      <g>
        <g>
          <path d="M375.8,1761.9c4.3-7.5,13.3-11.4,22-9,10.4,2.8,16.5,13.5,13.7,23.9-4.9,18-8,36.4-9.3,54.5-.8,10.7-10.1,18.8-20.8,18.1-10.7-.8-18.8-10.1-18.1-20.8,1.5-20.7,5-41.5,10.6-62,.5-1.7,1.1-3.2,1.9-4.6Z" fill="#ed4944"/>
          <path d="M560.1,1521.8c1.3-2.3,3.2-4.4,5.5-6.1,20.1-14.4,42-28.4,64.8-41.7,9.3-5.4,21.2-2.2,26.6,7.1,5.4,9.3,2.2,21.2-7.1,26.6-21.8,12.6-42.5,25.9-61.7,39.6-8.8,6.3-20.9,4.3-27.2-4.5-4.6-6.4-4.7-14.7-1-21.1Z" fill="#ed4944"/>
          <path d="M834.4,1390.9c2.4-4.1,6.3-7.4,11.2-8.9,30.2-9.2,61.7-17.5,93.6-24.7,10.5-2.4,20.9,4.3,23.3,14.8,2.4,10.5-4.3,20.9-14.8,23.3-30.9,6.9-61.4,15-90.7,23.9-10.3,3.1-21.2-2.7-24.3-12.9-1.6-5.4-.8-10.9,1.8-15.4Z" fill="#ed4944"/>
          <path d="M1377.3,1338.3c3.7-6.4,10.8-10.4,18.6-9.7,31.5,2.8,62.9,6.6,93.5,11.3,10.6,1.6,17.9,11.6,16.3,22.2-1.6,10.6-11.6,17.9-22.2,16.3-29.8-4.6-60.4-8.3-91-11-10.7-1-18.6-10.4-17.7-21.1.3-2.9,1.2-5.6,2.5-8Z" fill="#ed4944"/>
          <path d="M1861.4,1480.6c5.4-9.3,17.3-12.5,26.6-7.1l.6.4c63.8,37.1,117.3,79.2,159.2,125.3,7.2,8,6.6,20.3-1.3,27.5-8,7.2-20.3,6.6-27.5-1.3-39.1-43.1-89.6-82.8-149.9-117.8l-.6-.3c-9.3-5.4-12.5-17.3-7.1-26.6Z" fill="#ed4944"/>
          <path d="M1709.3,1410.1c4.6-8.1,14.5-11.8,23.6-8.5,28.9,10.6,57,22.2,83.6,34.7,9.8,4.6,14,16.2,9.4,25.9-4.6,9.7-16.2,14-25.9,9.4-25.6-12-52.7-23.2-80.5-33.4-10.1-3.7-15.3-14.9-11.6-25,.4-1.1.9-2.1,1.4-3.1Z" fill="#ed4944"/>
          <path d="M2058.2,1655.8c1.5-2.5,3.5-4.8,6.1-6.5,9-6,21.1-3.5,27,5.4,11.8,17.7,22.1,36.1,30.5,54.6,4.5,9.8.2,21.4-9.6,25.8-9.8,4.5-21.4.2-25.8-9.6-7.6-16.7-16.9-33.2-27.5-49.3-4.2-6.4-4.2-14.3-.6-20.5Z" fill="#66ffe8"/>
        </g>
        <g>
          <path d="M503.2,1368.8c1.1-2,2.6-3.8,4.5-5.3,30.6-25.2,65.3-49,103.2-70.9,31.4-18.1,65.2-35,100.4-50.2h.2c0,0,24.8-10.4,24.8-10.4,10.5-4.2,21.3-8.4,32.1-12.3,10.1-3.7,21.3,1.5,25,11.6,3.7,10.1-1.5,21.3-11.6,25-10.4,3.8-20.7,7.8-30.8,11.8l-24.4,10.1c-33.8,14.6-66.2,30.8-96.2,48.1-36.1,20.8-69,43.4-98,67.2-8.3,6.8-20.6,5.6-27.4-2.7-5.3-6.5-5.8-15.3-1.8-22.1Z" fill="#fbc977"/>
          <path d="M1119.5,1152.7c3.1-5.4,8.7-9.2,15.4-9.7,56.2-4.2,113.4-5.4,169.9-3.5,10.8.4,19.2,9.4,18.8,20.1-.4,10.8-9.4,19.2-20.1,18.8-55.2-1.8-110.9-.7-165.7,3.4-10.7.8-20.1-7.2-20.9-18-.3-4.1.7-7.9,2.5-11.2Z" fill="#ed4944"/>
          <path d="M1611.8,1196.5c4.3-7.5,13.2-11.4,22-9.1,53.6,14.5,105,32.1,152.8,52.5,9.9,4.2,14.5,15.7,10.3,25.6-4.2,9.9-15.7,14.5-25.6,10.3-46.1-19.7-95.8-36.7-147.7-50.7-10.4-2.8-16.5-13.5-13.7-23.9.5-1.7,1.1-3.2,1.9-4.7Z" fill="#66ffe8"/>
          <path d="M1871.1,1303s0,0,0,0c4.6-7.8,14.6-10.4,22.3-5.8,8.9,5.2,17.8,10.7,26.4,16.2,7.6,4.8,9.8,14.9,5,22.5-4.8,7.6-14.9,9.8-22.5,5-8.3-5.3-16.8-10.5-25.4-15.5-7.7-4.5-10.4-14.5-5.9-22.2Z" fill="#0c3461"/>
          <path d="M2045,1447.8c1-1.7,2.3-3.3,3.9-4.6,7-5.6,17.3-4.5,22.9,2.5,28.2,35.2,49.8,72.4,64.3,110.5,3.2,8.4-1.1,17.8-9.5,21-8.4,3.2-17.8-1.1-21-9.5-13.2-35-33.2-69.2-59.2-101.7-4.3-5.4-4.7-12.7-1.4-18.4Z" fill="#fbc977"/>
          <path d="M2124.7,1623.9c2.4-4.2,6.7-7.3,11.9-8,8.9-1.2,17.2,5,18.4,13.9,1,7.5,1.8,15.2,2.3,23,.6,9-6.2,16.8-15.2,17.3-9,.6-16.8-6.2-17.3-15.2-.5-7-1.2-14-2.1-20.7-.5-3.7.3-7.3,2-10.4Z" fill="#fbc977"/>
        </g>
      </g>
      <g isolation="isolate">
        <g>
          <path d="M2069,1564.4c-6.5-11.8-13.5-23.3-21.2-34.2-19.3-28.1-40.4-53.8-66.2-78.7-40.6-40.3-86.2-73.5-135.7-102.9l1.1.6c-186.2-111-414.5-146.4-577.3-148.3,1.9,0,3.7,0,5.5,0-148-3.2-306.4,16.9-452,67.3,1.3-.5,2.6-1,3.8-1.4-58.3,19.9-110,43-161.5,71.4-60.8,34.4-119.5,76.9-167.3,128.5-64.9,68.2-112.4,158.8-120.4,251.6-19.3,173.8,89.7,326.1,228.7,419.3,90.6,62.4,194.3,104.6,300.5,132.8,279.5,74.5,624.3,55.3,882.2-72.1,83.8-41.2,155.8-90.9,217.1-158.5,13.9-14.6,29.8-36.5,41.6-52.9,7.1-9.4,15.6-23.3,27.2-45,11.5-22.1,21.4-46.2,29-70.2l-.9,2.5c1.6-4.9,2.9-9.2,4.3-14,29.2-98.4,15.2-204.3-38.4-295.8Z" fill="#27639e"/>
          <path d="M725.2,1345.3c297.5-166.9,773.1-162.1,1062.2,10.7,289.2,172.9,282.4,448.3-15.1,615.2-297.5,166.9-773.1,162.1-1062.2-10.7-289.2-172.9-282.4-448.3,15.1-615.2Z" fill="#114077"/>
        </g>
      </g>
      <g>
        <path d="M1858.9,2197.8c1.6-2.8,4-5.3,7.1-7.1,21.7-12.6,42.4-25.9,61.6-39.6,8.7-6.2,20.9-4.2,27.1,4.5,6.2,8.7,4.2,20.8-4.5,27.1-20.2,14.5-42,28.5-64.8,41.7-9.3,5.4-21.2,2.2-26.5-7.1-3.6-6.2-3.4-13.6,0-19.5Z" fill="#e9f0f7"/>
        <path d="M2115.7,1858.6c3.6-6.2,10.5-10.2,18.2-9.7,10.7.7,18.8,10,18,20.7-1.4,20.7-4.9,41.5-10.5,62-2.8,10.4-13.5,16.5-23.8,13.7-10.4-2.8-16.5-13.5-13.7-23.8,4.9-18,8-36.4,9.2-54.5.2-3,1.1-5.9,2.5-8.4Z" fill="#ed4944"/>
        <path d="M464.7,2076.3c1-1.7,2.2-3.3,3.8-4.7,8-7.2,20.2-6.6,27.4,1.4,39.2,43.3,89.8,83.1,150.3,118.3l1.2.7c9.3,5.4,12.3,17.3,7,26.6-5.4,9.3-17.3,12.4-26.6,7l-1.2-.7c-64-37.2-117.6-79.5-159.5-125.8-5.8-6.4-6.5-15.6-2.4-22.7Z" fill="#66ffe8"/>
        <path d="M1205.7,2346.5c3.4-5.9,9.9-9.9,17.2-9.7,86.8,1.8,173.3-3.8,257-16.8,10.6-1.6,20.5,5.6,22.2,16.2,1.7,10.6-5.6,20.5-16.2,22.2-85.9,13.4-174.7,19.2-263.8,17.3-10.7-.2-19.2-9.1-19-19.8,0-3.4,1-6.5,2.6-9.3Z" fill="#144b8a"/>
        <path d="M1555.8,2312.4c2.6-4.5,7.1-8,12.6-9.2,30.8-6.9,61.3-15,90.7-24,10.3-3.1,21.1,2.6,24.3,12.9,3.1,10.3-2.6,21.1-12.9,24.3-30.3,9.3-61.8,17.6-93.5,24.7-10.5,2.4-20.9-4.2-23.2-14.7-1.1-5-.2-9.9,2.1-14Z" fill="#fbc977"/>
        <path d="M690.9,2235.4c5-8.6,15.8-12.2,25-7.9,25.6,11.9,52.7,23.2,80.6,33.3,10.1,3.7,15.3,14.8,11.6,24.9-3.7,10.1-14.8,15.3-24.9,11.6-28.9-10.6-57.1-22.2-83.7-34.6-9.7-4.5-13.9-16.1-9.4-25.8.2-.5.5-1,.8-1.5Z" fill="#e9f0f7"/>
      </g>
      <g>
        <path d="M408.4,1862.6c1.2-2,2.8-3.8,4.8-5.2,7.4-5.2,17.6-3.4,22.7,4,4.5,6.5,9.4,13,14.4,19.4,5.6,7.1,4.3,17.3-2.7,22.9-7.1,5.6-17.3,4.3-22.9-2.7-5.4-6.9-10.6-13.9-15.5-20.8-3.8-5.4-3.8-12.2-.8-17.5Z" fill="#e9f0f7"/>
        <path d="M436.4,1898.5c.9-1.5,2.1-3,3.5-4.2,6.8-5.9,17.1-5.1,23,1.7,28.5,33.1,63.7,64.6,104.5,93.4,7.4,5.2,9.1,15.4,3.9,22.7-5.2,7.4-15.4,9.1-22.7,3.9-43-30.4-80.1-63.6-110.4-98.8-4.6-5.4-5.1-13-1.8-18.8Z" fill="#e9f0f7"/>
        <path d="M367.9,1547.3c4-7,12.7-10.1,20.4-6.9,8.3,3.4,12.3,13,8.8,21.3-21.2,51.1-28.1,103.6-20.5,155.9,1.3,8.9-4.9,17.2-13.8,18.5-8.9,1.3-17.2-4.9-18.5-13.8-8.4-58.2-.8-116.4,22.7-173,.3-.7.6-1.3,1-1.9Z" fill="#0c3461"/>
        <path d="M1939.9,1982.5c1.1-1.9,2.5-3.5,4.4-4.9,7.7-5.8,15.1-11.5,22-17.1,7-5.7,17.3-4.6,22.9,2.3,5.7,7,4.6,17.3-2.3,22.9-7.3,5.9-15,12-23.1,18-7.2,5.4-17.4,3.9-22.8-3.3-4-5.4-4.2-12.4-1-17.9Z" fill="#66ffe8"/>
        <path d="M2050.3,1875.9c.4-.6.8-1.2,1.2-1.8,18.1-23.5,33.1-48,44.6-72.8,3.8-8.2,13.5-11.7,21.7-7.9,8.2,3.8,11.7,13.5,7.9,21.7-12.5,27-28.8,53.5-48.3,78.9-5.5,7.1-15.7,8.5-22.9,3-6.6-5-8.2-14.1-4.2-21.1Z" fill="#e9f0f7"/>
        <path d="M1581.9,2142.4c2.1-3.7,5.7-6.6,10.2-7.7,56.7-13.9,111.1-31.4,161.6-51.9,8.3-3.4,17.9.6,21.3,9,3.4,8.3-.6,17.9-9,21.3-51.9,21.1-107.8,39.1-166.1,53.4-8.7,2.1-17.6-3.2-19.7-11.9-1-4.3-.3-8.5,1.7-12Z" fill="#0c3461"/>
        <path d="M1423.2,2171.7c2.5-4.3,6.8-7.4,12.1-8,12-1.5,24.2-3.2,36.4-5.1,8.9-1.3,17.2,4.8,18.6,13.7,1.4,8.9-4.8,17.2-13.7,18.6-12.5,1.9-25,3.6-37.2,5.2-8.9,1.1-17.1-5.2-18.2-14.1-.5-3.7.3-7.2,2.1-10.2Z" fill="#ff8666"/>
        <path d="M1087.4,2176.7c3.1-5.4,9.1-8.7,15.7-8.1,22.4,2.1,45.2,3.8,67.8,4.9,9,.4,15.9,8.1,15.5,17.1-.4,9-8.1,15.9-17.1,15.5-23.1-1.1-46.4-2.8-69.2-5-9-.9-15.5-8.8-14.7-17.8.2-2.4,1-4.6,2.1-6.6Z" fill="#fbc977"/>
        <path d="M818.7,2124.6c3.7-6.4,11.5-9.7,18.9-7.4,11.1,3.4,22.3,6.6,33.3,9.6,8.7,2.4,13.8,11.3,11.4,20-2.4,8.7-11.3,13.8-20,11.4-11.4-3.1-22.9-6.4-34.2-9.9-8.6-2.6-13.5-11.7-10.9-20.4.4-1.2.9-2.4,1.5-3.4Z" fill="#0c3461"/>
      </g>
    </g>
    <g>
      <g>
        <polygon points="2382.6 1332.7 2379.9 1336.6 1662.1 1093.1 1661.9 1093 732.1 531.8 734.2 527.8 1664 1089 2382.6 1332.7" fill="#5386b4"/>
        <polygon points="1751 2106.2 952.7 201.9 955.7 197.5 1754.1 2101.8 1751 2106.2" fill="#5386b4"/>
        <path d="M275.2,818.2c-1,0-1.9-.6-2.2-1.6-.3-1.2.4-2.4,1.5-2.8l1793.8-505.7c1.2-.3,2.4.4,2.8,1.5.3,1.2-.4,2.4-1.6,2.8L275.8,818.1c-.2,0-.4,0-.6,0Z" fill="#5386b4"/>
        <polygon points="470.2 2100.1 960.9 1998.9 962.9 2003.1 478.4 2102.9 470.2 2100.1" fill="#5386b4"/>
      </g>
      <g>
        <g isolation="isolate">
          <path d="M1636.3,1145l-27.5-56.6,21.1-40.4,60.9-11.1.2.5,27.6,56.7-.2.3-20.8,39.9-.4.2-60.5,11-.3-.6ZM1637.6,1143.6l58-10.6-26.5-54.6-58,10.6,26.5,54.6ZM1696.9,1131.7l19.6-37.7-26.4-54.2-19.6,37.7,26.4,54.2ZM1611.4,1087.2l57.6-10.5,19.6-37.6-57.6,10.5-19.6,37.6Z" fill="#175294"/>
          <g>
            <path d="M1677.3,1077.7h0c1.7,1.7,4.4,1.7,6.1,0l6.1-6.1c1.7-1.7,1.7-4.4,0-6.1h0c-1.7-1.7-4.4-1.7-6.1,0l-6.1,6.1c-1.7,1.7-1.7,4.4,0,6.1Z" fill="#e9f0f7"/>
            <path d="M1683.4,1091.8h0c0,2.4,1.9,4.3,4.3,4.3h8.6c2.4,0,4.3-1.9,4.3-4.3h0c0-2.4-1.9-4.3-4.3-4.3h-8.6c-2.4,0-4.3,1.9-4.3,4.3Z" fill="#e9f0f7"/>
            <path d="M1677.7,1106h0c-1.7,1.7-1.7,4.4,0,6.1l6.1,6.1c1.7,1.7,4.4,1.7,6.1,0h0c1.7-1.7,1.7-4.4,0-6.1l-6.1-6.1c-1.7-1.7-4.4-1.7-6.1,0Z" fill="#e9f0f7"/>
            <path d="M1663.7,1112.1h0c-2.4,0-4.3,1.9-4.3,4.3v8.6c0,2.4,1.9,4.3,4.3,4.3h0c2.4,0,4.3-1.9,4.3-4.3v-8.6c0-2.4-1.9-4.3-4.3-4.3Z" fill="#e9f0f7"/>
            <path d="M1649.4,1106.4h0c-1.7-1.7-4.4-1.7-6.1,0l-6.1,6.1c-1.7,1.7-1.7,4.4,0,6.1h0c1.7,1.7,4.4,1.7,6.1,0l6.1-6.1c1.7-1.7,1.7-4.4,0-6.1Z" fill="#e9f0f7"/>
            <path d="M1643.4,1092.4h0c0-2.4-1.9-4.3-4.3-4.3h-8.6c-2.4,0-4.3,1.9-4.3,4.3h0c0,2.4,1.9,4.3,4.3,4.3h8.6c2.4,0,4.3-1.9,4.3-4.3Z" fill="#e9f0f7"/>
            <path d="M1649,1078.2h0c1.7-1.7,1.7-4.4,0-6.1l-6.1-6.1c-1.7-1.7-4.4-1.7-6.1,0h0c-1.7,1.7-1.7,4.4,0,6.1l6.1,6.1c1.7,1.7,4.4,1.7,6.1,0Z" fill="#e9f0f7"/>
            <path d="M1663.1,1072.1h0c2.4,0,4.3-1.9,4.3-4.3v-8.6c0-2.4-1.9-4.3-4.3-4.3h0c-2.4,0-4.3,1.9-4.3,4.3v8.6c0,2.4,1.9,4.3,4.3,4.3Z" fill="#e9f0f7"/>
          </g>
          <path d="M1608.8,1088.4l21-40.3.4-.2,60.5-11,27.8,57.2-21,40.4-60.9,11.1-27.8-57.2ZM1638.7,1143.4l57.6-10.5,19.6-37.6-57.6,10.5-19.6,37.6ZM1637.1,1142.7l19.6-37.7-26.4-54.2-19.6,37.7,26.4,54.2ZM1658.3,1104l58-10.6-26.5-54.6-58,10.6,26.5,54.6Z" fill="#175294"/>
        </g>
        <g isolation="isolate">
          <path d="M635.5,497.7l21.4-41.1,61.6-11.3.7,1,27.7,57-.3.7-21,40.3-.8.2-61.1,11.2-28.2-58.1ZM665.6,552.1l56.4-10.3-25.8-53.1-56.4,10.3,25.8,53.1ZM724.5,539.3l18.8-36-25.5-52.5-18.8,36,25.5,52.5ZM640.4,495.5l55.7-10.2,18.7-35.9-55.7,10.2-18.7,35.9Z" fill="#175294"/>
          <g>
            <path d="M704.9,487h0c1.7,1.7,4.4,1.7,6.1,0l6.1-6.1c1.7-1.7,1.7-4.4,0-6.1h0c-1.7-1.7-4.4-1.7-6.1,0l-6.1,6.1c-1.7,1.7-1.7,4.4,0,6.1Z" fill="#e9f0f7"/>
            <path d="M710.9,501.1h0c0,2.4,1.9,4.3,4.3,4.3h8.6c2.4,0,4.3-1.9,4.3-4.3h0c0-2.4-1.9-4.3-4.3-4.3h-8.6c-2.4,0-4.3,1.9-4.3,4.3Z" fill="#e9f0f7"/>
            <path d="M705.3,515.3h0c-1.7,1.7-1.7,4.4,0,6.1l6.1,6.1c1.7,1.7,4.4,1.7,6.1,0h0c1.7-1.7,1.7-4.4,0-6.1l-6.1-6.1c-1.7-1.7-4.4-1.7-6.1,0Z" fill="#e9f0f7"/>
            <path d="M691.3,521.4h0c-2.4,0-4.3,1.9-4.3,4.3v8.6c0,2.4,1.9,4.3,4.3,4.3h0c2.4,0,4.3-1.9,4.3-4.3v-8.6c0-2.4-1.9-4.3-4.3-4.3Z" fill="#e9f0f7"/>
            <path d="M677,515.7h0c-1.7-1.7-4.4-1.7-6.1,0l-6.1,6.1c-1.7,1.7-1.7,4.4,0,6.1h0c1.7,1.7,4.4,1.7,6.1,0l6.1-6.1c1.7-1.7,1.7-4.4,0-6.1Z" fill="#e9f0f7"/>
            <path d="M670.9,501.7h0c0-2.4-1.9-4.3-4.3-4.3h-8.6c-2.4,0-4.3,1.9-4.3,4.3h0c0,2.4,1.9,4.3,4.3,4.3h8.6c2.4,0,4.3-1.9,4.3-4.3Z" fill="#e9f0f7"/>
            <path d="M676.6,487.5h0c1.7-1.7,1.7-4.4,0-6.1l-6.1-6.1c-1.7-1.7-4.4-1.7-6.1,0h0c-1.7,1.7-1.7,4.4,0,6.1l6.1,6.1c1.7,1.7,4.4,1.7,6.1,0Z" fill="#e9f0f7"/>
            <path d="M690.6,481.4h0c2.4,0,4.3-1.9,4.3-4.3v-8.6c0-2.4-1.9-4.3-4.3-4.3h0c-2.4,0-4.3,1.9-4.3,4.3v8.6c0,2.4,1.9,4.3,4.3,4.3Z" fill="#e9f0f7"/>
          </g>
          <path d="M635.5,497.7l.3-.7,21-40.3.8-.2,61.1-11.1.5,1,27.7,57-21.4,41.1h-.7c0,.1-61.1,11.3-61.1,11.3l-28.2-58.1ZM667.7,551.7l55.7-10.2,18.7-35.9-55.7,10.2-18.7,35.9ZM664.7,550.3l18.8-36-25.5-52.5-18.8,36,25.5,52.5ZM686.3,512.5l56.4-10.3-25.8-53.1-56.4,10.3,25.8,53.1Z" fill="#175294"/>
        </g>
        <g>
          <path d="M1025.6,1979.7h0c1.7,1.7,4.4,1.7,6.1,0l6.1-6.1c1.7-1.7,1.7-4.4,0-6.1h0c-1.7-1.7-4.4-1.7-6.1,0l-6.1,6.1c-1.7,1.7-1.7,4.4,0,6.1Z" fill="#e9f0f7"/>
          <path d="M1031.7,1993.7h0c0,2.4,1.9,4.3,4.3,4.3h8.6c2.4,0,4.3-1.9,4.3-4.3h0c0-2.4-1.9-4.3-4.3-4.3h-8.6c-2.4,0-4.3,1.9-4.3,4.3Z" fill="#e9f0f7"/>
          <path d="M1026.1,2008h0c-1.7,1.7-1.7,4.4,0,6.1l6.1,6.1c1.7,1.7,4.4,1.7,6.1,0h0c1.7-1.7,1.7-4.4,0-6.1l-6.1-6.1c-1.7-1.7-4.4-1.7-6.1,0Z" fill="#e9f0f7"/>
          <path d="M1012,2014.1h0c-2.4,0-4.3,1.9-4.3,4.3v8.6c0,2.4,1.9,4.3,4.3,4.3h0c2.4,0,4.3-1.9,4.3-4.3v-8.6c0-2.4-1.9-4.3-4.3-4.3Z" fill="#e9f0f7"/>
          <path d="M997.8,2008.4h0c-1.7-1.7-4.4-1.7-6.1,0l-6.1,6.1c-1.7,1.7-1.7,4.4,0,6.1h0c1.7,1.7,4.4,1.7,6.1,0l6.1-6.1c1.7-1.7,1.7-4.4,0-6.1Z" fill="#e9f0f7"/>
          <path d="M991.7,1994.4h0c0-2.4-1.9-4.3-4.3-4.3h-8.6c-2.4,0-4.3,1.9-4.3,4.3h0c0,2.4,1.9,4.3,4.3,4.3h8.6c2.4,0,4.3-1.9,4.3-4.3Z" fill="#e9f0f7"/>
          <path d="M997.3,1980.1h0c1.7-1.7,1.7-4.4,0-6.1l-6.1-6.1c-1.7-1.7-4.4-1.7-6.1,0h0c-1.7,1.7-1.7,4.4,0,6.1l6.1,6.1c1.7,1.7,4.4,1.7,6.1,0Z" fill="#e9f0f7"/>
          <path d="M1011.4,1974.1h0c2.4,0,4.3-1.9,4.3-4.3v-8.6c0-2.4-1.9-4.3-4.3-4.3h0c-2.4,0-4.3,1.9-4.3,4.3v8.6c0,2.4,1.9,4.3,4.3,4.3Z" fill="#e9f0f7"/>
        </g>
        <g>
          <g>
            <polygon points="986.1 2045.2 1043.4 2034.8 1017.2 1980.9 959.9 1991.3 986.1 2045.2" fill="none"/>
            <polygon points="1000.3 1981.4 1017.1 1978.4 1017.1 1978.4 1000.3 1981.4" fill="#175294"/>
            <polygon points="1019.3 1979.5 1026.3 1966.1 1019.3 1979.5 1019.3 1979.5" fill="#175294"/>
            <polygon points="1017.1 1978.4 1021.4 1970 1017.1 1978.4 1017.1 1978.4" fill="#175294"/>
            <rect x="1030.3" y="1977.9" width="0" height="59.9" transform="translate(-774 652.3) rotate(-25.9)" fill="#175294"/>
            <polygon points="1019.3 1979.5 1020.3 1981.5 1019.3 1979.5 1019.3 1979.5" fill="#175294"/>
            <polygon points="1045.3 2032.9 1045.3 2032.9 1020.3 1981.5 1045.3 2032.9" fill="#175294"/>
            <polygon points="960.4 1988.7 1000.3 1981.4 960.4 1988.7 960.4 1988.7" fill="#175294"/>
            <path d="M1039.9,1939.9l-.7-1.4-1.5.3-59.2,10.8h-.6c0,0-20.7,39.7-20.7,39.7l-.6,1.1.7,1.4,27,55.5.4.8,59.8-10.9,1.5-.3.6-1.1,20.4-39.1.3-.5-27.3-56.2ZM960.4,1988.7l19.2-36.8,56.7-10.4-14.9,28.5-4.3,8.3h0s-16.8,3.1-16.8,3.1l-39.9,7.3h0ZM1043.4,2034.8l-57.2,10.5-26.2-53.9,57.2-10.5,26.2,53.9h0ZM1045.3,2032.9h0s-25-51.4-25-51.4l-1-2h0s7-13.4,7-13.4l12.3-23.5,26,53.4-19.2,36.9Z" fill="#98add4"/>
          </g>
          <path d="M1066.6,1994.7l-27.3-56.2-59.8,10.9-.9.2h-.6c0,.1-.6,1.2-.6,1.2l-20.6,39.6,27.3,56.2.3.6.4.8,1.5-.3,59.3-10.8h.5c0-.1,20.6-39.7,20.6-39.7l.3-.5.3-.6-.7-1.4ZM980.6,1951.7l57.2-10.5,26.2,53.9-57.2,10.5h0s-26.2-53.9-26.2-53.9h0ZM985.5,2043.8l-26-53.4,19.2-36.9h0s23.2,47.7,23.2,47.7l2.8,5.7-19.2,36.9ZM1044.4,2034.6l-56.7,10.4,19.2-36.8,18.8-3.4,37.9-6.9h0s-19.2,36.8-19.2,36.8Z" fill="#98add4"/>
        </g>
        <path d="M257,752.4l-.8-2.4-3.1-1.1-156.8-54.2-1.8-.6L1.8,828.3l-1.1,1.6L0,831l.8,2.4,35.6,113.2.4,1.2,3.1,1.1,3-4.4,53.8-77.9,3-4.4,32.9-47.6,60.7,21,5,1.7,87.9,30.4,3.2,1.1,1.8.6,1.8-2.6-36-114.4ZM94.7,860.5l-3,4.4-52,75.2-32.9-104.5-1.2-3.7,1.2-1.7,87.9-127.2,17.9,56.7,16.2,51.5-34.1,49.3ZM201.4,833l-5-1.7-62.6-21.7-6.6-21-27.5-87.3,150.6,52.1,2,.7,1.2,3.8,32.9,104.6-84.9-29.4Z" fill="#175294"/>
        <g>
          <path d="M146.7,797.4h0c6.4,0,11.5-5.2,11.5-11.5v-23.1c0-6.4-5.2-11.5-11.5-11.5h0c-6.4,0-11.5,5.2-11.5,11.5v23.1c0,6.4,5.2,11.5,11.5,11.5Z" fill="#e9f0f7"/>
          <path d="M184.9,812.5h0c4.5,4.5,11.8,4.5,16.3,0l16.3-16.3c4.5-4.5,4.5-11.8,0-16.3h0c-4.5-4.5-11.8-4.5-16.3,0l-16.3,16.3c-4.5,4.5-4.5,11.8,0,16.3Z" fill="#e9f0f7"/>
          <path d="M201.2,850.2h0c0,6.4,5.2,11.5,11.5,11.5h23.1c6.4,0,11.5-5.2,11.5-11.5h0c0-6.4-5.2-11.5-11.5-11.5h-23.1c-6.4,0-11.5,5.2-11.5,11.5Z" fill="#e9f0f7"/>
          <path d="M186.1,888.4h0c-4.5,4.5-4.5,11.8,0,16.3l16.3,16.3c4.5,4.5,11.8,4.5,16.3,0h0c4.5-4.5,4.5-11.8,0-16.3l-16.3-16.3c-4.5-4.5-11.8-4.5-16.3,0Z" fill="#e9f0f7"/>
          <path d="M148.4,904.8h0c-6.4,0-11.5,5.2-11.5,11.5v23.1c0,6.4,5.2,11.5,11.5,11.5h0c6.4,0,11.5-5.2,11.5-11.5v-23.1c0-6.4-5.2-11.5-11.5-11.5Z" fill="#e9f0f7"/>
          <path d="M110.2,889.6h0c-4.5-4.5-11.8-4.5-16.3,0l-16.3,16.3c-4.5,4.5-4.5,11.8,0,16.3h0c4.5,4.5,11.8,4.5,16.3,0l16.3-16.3c4.5-4.5,4.5-11.8,0-16.3Z" fill="#e9f0f7"/>
          <path d="M93.9,851.9h0c0-6.4-5.2-11.5-11.5-11.5h-23.1c-6.4,0-11.5,5.2-11.5,11.5h0c0,6.4,5.2,11.5,11.5,11.5h23.1c6.4,0,11.5-5.2,11.5-11.5Z" fill="#e9f0f7"/>
          <path d="M109,813.7h0c4.5-4.5,4.5-11.8,0-16.3l-16.3-16.3c-4.5-4.5-11.8-4.5-16.3,0h0c-4.5,4.5-4.5,11.8,0,16.3l16.3,16.3c4.5,4.5,11.8,4.5,16.3,0Z" fill="#e9f0f7"/>
        </g>
        <path d="M257,752.4l-.8-2.4-3.1-1.1-156.8-54.2-1.8-.6L1.8,828.3l-1.1,1.6L0,831l.8,2.4,35.6,113.2.4,1.2,3.1,1.1,155.5,53.8,1.2.4,1.8.6,1.8-2.6,91-131.6,1.8-2.6-36-114.4ZM94.7,702.9l1.9-2.7,3,1,150.6,52.1-44,63.7-9.8,14.2-3,4.4-32.9,47.5-60.7-21-5-1.7-20.4-7-67.5-23.3,87.9-127.2ZM42.9,944.5l-2-.7-1.2-3.8-32.9-104.5,84.9,29.4,5,1.7,32,11.1,30.6,10.6,6.6,21,27.5,87.3-150.6-52.1ZM198.3,994.9l-34.1-108.2,34.1-49.3,3-4.4,18.7-27,33.3-48.2,34.1,108.2-1.2,1.8-87.9,127.1Z" fill="#175294"/>
        <g>
          <path d="M2192.8,211.1h0c6.4,0,11.5-5.2,11.5-11.5v-23.1c0-6.4-5.2-11.5-11.5-11.5h0c-6.4,0-11.5,5.2-11.5,11.5v23.1c0,6.4,5.2,11.5,11.5,11.5Z" fill="#e9f0f7"/>
          <path d="M2231,226.2h0c4.5,4.5,11.8,4.5,16.3,0l16.3-16.3c4.5-4.5,4.5-11.8,0-16.3h0c-4.5-4.5-11.8-4.5-16.3,0l-16.3,16.3c-4.5,4.5-4.5,11.8,0,16.3Z" fill="#e9f0f7"/>
          <rect x="2258.9" y="240.9" width="23.1" height="46.1" rx="11.5" ry="11.5" transform="translate(2006.5 2534.3) rotate(-90)" fill="#e9f0f7"/>
          <path d="M2232.2,302.1h0c-4.5,4.5-4.5,11.8,0,16.3l16.3,16.3c4.5,4.5,11.8,4.5,16.3,0h0c4.5-4.5,4.5-11.8,0-16.3l-16.3-16.3c-4.5-4.5-11.8-4.5-16.3,0Z" fill="#e9f0f7"/>
          <path d="M2194.5,318.4h0c-6.4,0-11.5,5.2-11.5,11.5v23.1c0,6.4,5.2,11.5,11.5,11.5h0c6.4,0,11.5-5.2,11.5-11.5v-23.1c0-6.4-5.2-11.5-11.5-11.5Z" fill="#e9f0f7"/>
          <path d="M2156.3,303.3h0c-4.5-4.5-11.8-4.5-16.3,0l-16.3,16.3c-4.5,4.5-4.5,11.8,0,16.3h0c4.5,4.5,11.8,4.5,16.3,0l16.3-16.3c4.5-4.5,4.5-11.8,0-16.3Z" fill="#e9f0f7"/>
          <path d="M2140,265.6h0c0-6.4-5.2-11.5-11.5-11.5h-23.1c-6.4,0-11.5,5.2-11.5,11.5h0c0,6.4,5.2,11.5,11.5,11.5h23.1c6.4,0,11.5-5.2,11.5-11.5Z" fill="#e9f0f7"/>
          <path d="M2155.1,227.4h0c4.5-4.5,4.5-11.8,0-16.3l-16.3-16.3c-4.5-4.5-11.8-4.5-16.3,0h0c-4.5,4.5-4.5,11.8,0,16.3l16.3,16.3c4.5,4.5,11.8,4.5,16.3,0Z" fill="#e9f0f7"/>
        </g>
        <path d="M2174.9,224.9h0s0,0,0,0h0ZM2338.4,278.1l-6-2.1-80.5-27.9-72-24.9h0l-34.1-108.3,150.6,52.1,3-4.4-155.5-53.8-1.2-.4-1.8-.7-92.8,134.2,5,1.7,87.9-127.1,13.7,43.4,20.4,64.8h0s.4,1.2.4,1.2l-.4-1.2-89.1,128.9-3,4.3-.7,1.1.8,2.4,3.1,1.1,92.8-134.2,153.6,53.1,3.2,1.1,1.8.6,1.8-2.6-.8-2.4ZM2174.9,224.9h0s0,0,0,0h0Z" fill="#175294"/>
        <path d="M2303.1,166.1l-.8-2.4-3.1-1.1-3,4.4h0s-27.6,39.9-27.6,39.9l-62.2,90h0s0,0,0,0l-38.3-13.3-120.3-41.6-1.1,1.6-.7,1,.8,2.4,35.6,113.2.4,1.2,158.6,54.9,1.2.4,1.8.6,1.8-2.6,92.2-133.3.6-.9-36-114.4ZM2087,357.5l-34.1-108.3h0s152.6,52.8,152.6,52.8h0s0,0,0,0l2.5,7.9,31.6,100.5h0s-152.6-52.8-152.6-52.8ZM2244.4,408.6l-21.1-67-13-41.2h0s0,0,0,0l33.2-48.1,55.9-80.8,34.1,108.2-89.1,128.9Z" fill="#175294"/>
        <g isolation="isolate">
          <path d="M1819.7,2292.7l-159.5-55.2-36.6-116.2.5-.7,93.6-135.4,160.8,55.6,36.6,116.2-94.1,136.1-1.3-.4ZM1819.5,2288.7l90.6-131.1-155-53.6-90.6,131.1,155,53.6ZM1662.3,2231.9l90.1-130.4-34.6-110-90.1,130.4,34.6,110ZM1910.2,2153.8l-34.6-110.1-154.3-53.4,34.6,110.1,154.3,53.4Z" fill="#98add4"/>
          <g>
            <path d="M1769.5,2087.6h0c6.4,0,11.5-5.2,11.5-11.5v-23.1c0-6.4-5.2-11.5-11.5-11.5h0c-6.4,0-11.5,5.2-11.5,11.5v23.1c0,6.4,5.2,11.5,11.5,11.5Z" fill="#e9f0f7"/>
            <path d="M1807.7,2102.8h0c4.5,4.5,11.8,4.5,16.3,0l16.3-16.3c4.5-4.5,4.5-11.8,0-16.3h0c-4.5-4.5-11.8-4.5-16.3,0l-16.3,16.3c-4.5,4.5-4.5,11.8,0,16.3Z" fill="#e9f0f7"/>
            <path d="M1824,2140.5h0c0,6.4,5.2,11.5,11.5,11.5h23.1c6.4,0,11.5-5.2,11.5-11.5h0c0-6.4-5.2-11.5-11.5-11.5h-23.1c-6.4,0-11.5,5.2-11.5,11.5Z" fill="#e9f0f7"/>
            <path d="M1808.9,2178.7h0c-4.5,4.5-4.5,11.8,0,16.3l16.3,16.3c4.5,4.5,11.8,4.5,16.3,0h0c4.5-4.5,4.5-11.8,0-16.3l-16.3-16.3c-4.5-4.5-11.8-4.5-16.3,0Z" fill="#e9f0f7"/>
            <path d="M1771.2,2195h0c-6.4,0-11.5,5.2-11.5,11.5v23.1c0,6.4,5.2,11.5,11.5,11.5h0c6.4,0,11.5-5.2,11.5-11.5v-23.1c0-6.4-5.2-11.5-11.5-11.5Z" fill="#e9f0f7"/>
            <path d="M1733,2179.9h0c-4.5-4.5-11.8-4.5-16.3,0l-16.3,16.3c-4.5,4.5-4.5,11.8,0,16.3h0c4.5,4.5,11.8,4.5,16.3,0l16.3-16.3c4.5-4.5,4.5-11.8,0-16.3Z" fill="#e9f0f7"/>
            <path d="M1716.7,2142.2h0c0-6.4-5.2-11.5-11.5-11.5h-23.1c-6.4,0-11.5,5.2-11.5,11.5h0c0,6.4,5.2,11.5,11.5,11.5h23.1c6.4,0,11.5-5.2,11.5-11.5Z" fill="#e9f0f7"/>
            <path d="M1731.8,2104h0c4.5-4.5,4.5-11.8,0-16.3l-16.3-16.3c-4.5-4.5-11.8-4.5-16.3,0h0c-4.5,4.5-4.5,11.8,0,16.3l16.3,16.3c4.5,4.5,11.8,4.5,16.3,0Z" fill="#e9f0f7"/>
          </g>
          <path d="M1660.2,2237.5l-36.6-116.2,94.1-136.1,160.8,55.6,36.6,116.2-94.1,136.1-160.8-55.6ZM1817.4,2288l-34.6-110-154.3-53.4,34.6,110.1,154.3,53.4ZM1820.9,2286.8l90.1-130.4-34.6-110-90.1,130.4,34.6,110ZM1783.5,2174.3l90.6-131.1-155-53.6-90.6,131.1,155,53.6Z" fill="#98add4"/>
        </g>
        <g isolation="isolate">
          <path d="M949.6,206.8l-106.9-37-24.6-78.2L881.4,0l108.2,37.4,24.6,78.2-63.3,91.6-1.2-.4ZM949.5,203.1l60-86.8-102.7-35.5-60,86.8,102.7,35.5ZM844.7,164.5l59.6-86.2-22.8-72.4-59.6,86.2,22.8,72.4ZM1009.6,112.6l-22.8-72.4-102-35.3,22.8,72.4,102,35.3Z" fill="#175294"/>
          <g>
            <path d="M916.3,69.1h0c4.3,0,7.7-3.5,7.7-7.7v-15.4c0-4.3-3.5-7.7-7.7-7.7h0c-4.3,0-7.7,3.5-7.7,7.7v15.4c0,4.3,3.5,7.7,7.7,7.7Z" fill="#e9f0f7"/>
            <path d="M941.8,79.2h0c3,3,7.9,3,10.9,0l10.9-10.9c3-3,3-7.9,0-10.9h0c-3-3-7.9-3-10.9,0l-10.9,10.9c-3,3-3,7.9,0,10.9Z" fill="#e9f0f7"/>
            <path d="M952.7,104.5h0c0,4.3,3.5,7.7,7.7,7.7h15.4c4.3,0,7.7-3.5,7.7-7.7h0c0-4.3-3.5-7.7-7.7-7.7h-15.4c-4.3,0-7.7,3.5-7.7,7.7Z" fill="#e9f0f7"/>
            <path d="M942.6,130h0c-3,3-3,7.9,0,10.9l10.9,10.9c3,3,7.9,3,10.9,0h0c3-3,3-7.9,0-10.9l-10.9-10.9c-3-3-7.9-3-10.9,0Z" fill="#e9f0f7"/>
            <path d="M917.4,141h0c-4.3,0-7.7,3.5-7.7,7.7v15.4c0,4.3,3.5,7.7,7.7,7.7h0c4.3,0,7.7-3.5,7.7-7.7v-15.4c0-4.3-3.5-7.7-7.7-7.7Z" fill="#e9f0f7"/>
            <path d="M891.8,130.8h0c-3-3-7.9-3-10.9,0l-10.9,10.9c-3,3-3,7.9,0,10.9h0c3,3,7.9,3,10.9,0l10.9-10.9c3-3,3-7.9,0-10.9Z" fill="#e9f0f7"/>
            <path d="M880.9,105.6h0c0-4.3-3.5-7.7-7.7-7.7h-15.4c-4.3,0-7.7,3.5-7.7,7.7h0c0,4.3,3.5,7.7,7.7,7.7h15.4c4.3,0,7.7-3.5,7.7-7.7Z" fill="#e9f0f7"/>
            <path d="M891,80h0c3-3,3-7.9,0-10.9l-10.9-10.9c-3-3-7.9-3-10.9,0h0c-3,3-3,7.9,0,10.9l10.9,10.9c3,3,7.9,3,10.9,0Z" fill="#e9f0f7"/>
          </g>
          <path d="M842.7,169.8l-.2-.7-24.4-77.5L881.4,0l108.2,37.4.2.7-1.4.7,1.4-.5,24.3,77.3-63.3,91.6-108.2-37.4ZM947.5,202.4l-22.8-72.4-102-35.3,22.8,72.4,102,35.3ZM950.8,201.2l59.6-86.2-22.8-72.4-59.6,86.2,22.8,72.4ZM925.4,126.5l60-86.8-102.7-35.5-60,86.8,102.7,35.5Z" fill="#175294"/>
        </g>
        <g isolation="isolate">
          <path d="M364.5,2176.9l-.2-.7v-.2c0,0-24.4-77.3-24.4-77.3l.4-.6,62.9-91,1.2.4,106.9,37,24.6,78.2-63.3,91.6-108.2-37.4ZM471.3,2210.1l60-86.8-102.7-35.5-60,86.8,102.7,35.5ZM366.4,2171.6l59.6-86.2-22.8-72.4-59.6,86.2,22.8,72.4ZM531.3,2119.6l-22.8-72.4-102-35.3,22.8,72.4,102,35.3Z" fill="#175294"/>
          <g>
            <path d="M438,2076.2h0c4.3,0,7.7-3.5,7.7-7.7v-15.4c0-4.3-3.5-7.7-7.7-7.7h0c-4.3,0-7.7,3.5-7.7,7.7v15.4c0,4.3,3.5,7.7,7.7,7.7Z" fill="#e9f0f7"/>
            <path d="M463.6,2086.3h0c3,3,7.9,3,10.9,0l10.9-10.9c3-3,3-7.9,0-10.9h0c-3-3-7.9-3-10.9,0l-10.9,10.9c-3,3-3,7.9,0,10.9Z" fill="#e9f0f7"/>
            <path d="M474.5,2111.5h0c0,4.3,3.5,7.7,7.7,7.7h15.4c4.3,0,7.7-3.5,7.7-7.7h0c0-4.3-3.5-7.7-7.7-7.7h-15.4c-4.3,0-7.7,3.5-7.7,7.7Z" fill="#e9f0f7"/>
            <path d="M464.4,2137.1h0c-3,3-3,7.9,0,10.9l10.9,10.9c3,3,7.9,3,10.9,0h0c3-3,3-7.9,0-10.9l-10.9-10.9c-3-3-7.9-3-10.9,0Z" fill="#e9f0f7"/>
            <path d="M439.1,2148h0c-4.3,0-7.7,3.5-7.7,7.7v15.4c0,4.3,3.5,7.7,7.7,7.7h0c4.3,0,7.7-3.5,7.7-7.7v-15.4c0-4.3-3.5-7.7-7.7-7.7Z" fill="#e9f0f7"/>
            <path d="M413.6,2137.9h0c-3-3-7.9-3-10.9,0l-10.9,10.9c-3,3-3,7.9,0,10.9h0c3,3,7.9,3,10.9,0l10.9-10.9c3-3,3-7.9,0-10.9Z" fill="#e9f0f7"/>
            <path d="M402.6,2112.7h0c0-4.3-3.5-7.7-7.7-7.7h-15.4c-4.3,0-7.7,3.5-7.7,7.7h0c0,4.3,3.5,7.7,7.7,7.7h15.4c4.3,0,7.7-3.5,7.7-7.7Z" fill="#e9f0f7"/>
            <path d="M412.8,2087.1h0c3-3,3-7.9,0-10.9l-10.9-10.9c-3-3-7.9-3-10.9,0h0c-3,3-3,7.9,0,10.9l10.9,10.9c3,3,7.9,3,10.9,0Z" fill="#e9f0f7"/>
          </g>
          <path d="M364.5,2176.9l-.2-.7-24.4-77.5,63.3-91.6,1.2.4,106.9,37,24.6,78.2-63.3,91.6-108.2-37.4ZM469.3,2209.4l-22.8-72.4-102-35.3,22.8,72.4,102,35.3ZM472.5,2208.3l59.6-86.2-22.8-72.4-59.6,86.2,22.8,72.4ZM447.2,2133.6l60-86.8-102.7-35.5-60,86.8,102.7,35.5Z" fill="#175294"/>
        </g>
        <g isolation="isolate">
          <path d="M2435.5,1447.6l-106.9-37-.2-.7,1.4-.7-1.4.5-24.3-77.3,63.3-91.6,108.2,37.4.2.7,24.4,77.5-63.3,91.6-1.2-.4ZM2435.3,1443.9l60-86.8-102.7-35.5-60,86.8,102.7,35.5ZM2330.5,1405.4l59.6-86.2-22.8-72.4-59.6,86.2,22.8,72.4ZM2495.4,1353.4l-22.8-72.4-102-35.3,22.8,72.4,102,35.3Z" fill="#175294"/>
          <g>
            <path d="M2402.1,1310h0c4.3,0,7.7-3.5,7.7-7.7v-15.4c0-4.3-3.5-7.7-7.7-7.7h0c-4.3,0-7.7,3.5-7.7,7.7v15.4c0,4.3,3.5,7.7,7.7,7.7Z" fill="#e9f0f7"/>
            <path d="M2427.6,1320.1h0c3,3,7.9,3,10.9,0l10.9-10.9c3-3,3-7.9,0-10.9h0c-3-3-7.9-3-10.9,0l-10.9,10.9c-3,3-3,7.9,0,10.9Z" fill="#e9f0f7"/>
            <path d="M2438.5,1345.3h0c0,4.3,3.5,7.7,7.7,7.7h15.4c4.3,0,7.7-3.5,7.7-7.7h0c0-4.3-3.5-7.7-7.7-7.7h-15.4c-4.3,0-7.7,3.5-7.7,7.7Z" fill="#e9f0f7"/>
            <path d="M2428.4,1370.9h0c-3,3-3,7.9,0,10.9l10.9,10.9c3,3,7.9,3,10.9,0h0c3-3,3-7.9,0-10.9l-10.9-10.9c-3-3-7.9-3-10.9,0Z" fill="#e9f0f7"/>
            <path d="M2403.2,1381.8h0c-4.3,0-7.7,3.5-7.7,7.7v15.4c0,4.3,3.5,7.7,7.7,7.7h0c4.3,0,7.7-3.5,7.7-7.7v-15.4c0-4.3-3.5-7.7-7.7-7.7Z" fill="#e9f0f7"/>
            <path d="M2377.6,1371.7h0c-3-3-7.9-3-10.9,0l-10.9,10.9c-3,3-3,7.9,0,10.9h0c3,3,7.9,3,10.9,0l10.9-10.9c3-3,3-7.9,0-10.9Z" fill="#e9f0f7"/>
            <path d="M2366.7,1346.5h0c0-4.3-3.5-7.7-7.7-7.7h-15.4c-4.3,0-7.7,3.5-7.7,7.7h0c0,4.3,3.5,7.7,7.7,7.7h15.4c4.3,0,7.7-3.5,7.7-7.7Z" fill="#e9f0f7"/>
            <path d="M2376.8,1320.9h0c3-3,3-7.9,0-10.9l-10.9-10.9c-3-3-7.9-3-10.9,0h0c-3,3-3,7.9,0,10.9l10.9,10.9c3,3,7.9,3,10.9,0Z" fill="#e9f0f7"/>
          </g>
          <path d="M2435.5,1447.6l-106.9-37-24.6-78.2,63.3-91.6,108.2,37.4.3.9,24.3,77.3-63.3,91.6-1.2-.4ZM2433.3,1443.2l-22.8-72.4-102-35.3,22.8,72.4,102,35.3ZM2436.6,1442.1l59.6-86.2-22.8-72.4-59.6,86.2,22.8,72.4ZM2411.2,1367.4l60-86.8-102.7-35.5-60,86.8,102.7,35.5Z" fill="#175294"/>
        </g>
      </g>
      <g>
        <g>
          <g>
            <polygon points="484.4 883.1 539.4 973.1 424.3 938.9 369.3 849 484.4 883.1" fill="#f9b142"/>
            <path d="M517.5,829.6c-11.6,17.5-22.7,35.3-33.2,53.5l55,89.9c56.6-98.3,130.7-186.2,215.7-261.3l-55-89.9c-69.3,61.1-131.2,130.9-182.5,207.8Z" fill="#db8918"/>
            <path d="M618.6,547l81.5,74.8c-42.8,37.7-83,79-119.9,123.6-37,44.8-68.9,90.9-95.8,137.7l-115.1-34.1c31.1-54.1,67.9-107.4,110.7-159.1,42.6-51.6,89.1-99.2,138.6-142.8Z" fill="#fbc977"/>
          </g>
          <g>
            <polygon points="1341.2 229.8 1396.3 319.7 1380.3 437.3 1325.2 347.4 1341.2 229.8" fill="#f9b142"/>
            <path d="M1071.8,514.6c98.3-40.6,202.5-67.7,308.5-77.3l-55-89.9c-113.7,10.4-225.3,40.7-329.9,86.4l55,89.9c7.1-3.1,14.2-6.1,21.4-9.1Z" fill="#db8918"/>
            <path d="M1341.2,229.8l-16,117.6c-110.5,10-222.7,39.4-329.9,86.4l-35.4-104.1c123.9-54.3,253.6-88.3,381.3-99.9Z" fill="#fbc977"/>
          </g>
          <g>
            <polygon points="406.3 1460.6 461.4 1550.5 334.1 1606.4 279.1 1516.5 406.3 1460.6" fill="#f9b142"/>
            <path d="M401.9,1446.8c1.4,4.6,2.9,9.2,4.5,13.8l55,89.9c-30.9-90.6-37.8-188.3-25.1-282.9l-55-89.9c-12.1,89.8-6.5,182.4,20.6,269.1Z" fill="#db8918"/>
            <path d="M381.3,1177.7c-13.3,99-4.7,195.2,25.1,282.9l-127.3,55.9c-34.4-101.4-44.3-212.6-28.9-327l131.1-11.8Z" fill="#fbc977"/>
          </g>
        </g>
        <g>
          <path d="M1694.2,813.2c-74.8-122.7-219.4-180.3-361.7-178.2-97.3,1.1-193.6,26.8-280.5,70.1-112.6,56.1-210.9,142.7-276.6,250.3-48.1,79.1-77.6,171.3-73.9,264.4,1.8,45.1,11.6,89.9,29.9,131.2,4.8,11,10.3,21.7,16.3,32,1.4,2.5,2.9,4.9,4.4,7.4,0,0,55,89.9,55,89.9-73.2-119.7-61.6-268.1-1-390.5,68.4-138.3,190.4-246.9,330.8-308.9,83.8-36.9,175.3-57.8,267.1-56,136.7,1.9,273.9,60.7,345.3,178.1l-55-89.9Z" fill="#db8918"/>
          <path d="M1613.5,629.1c250.8,139,279.2,463.3,63.6,724.4-215.6,261.1-593.7,360-844.5,221-250.8-139-279.2-463.3-63.6-724.4,215.6-261.1,593.7-360,844.5-221ZM882.8,1513.8c218.6,121.1,548.1,34.9,736-192.6,187.9-227.5,163.1-510.2-55.4-631.3-218.6-121.2-548.1-34.9-736,192.6-188,227.5-163.1,510.2,55.4,631.4h0Z" fill="#f9b142"/>
          <path d="M1925.7,1291.9c49.5-116.2,66.6-249.1,32-371.7-7.8-27.7-18.1-54.6-30.9-80.3-11.9-25.3-59.1-99-73.9-123.9,97.2,159,82.6,355,3.2,518.2-90.6,186.2-255.6,333.7-444.1,416.7-112,49.3-234.4,77.2-357.1,74.9-183.2-2.7-365.8-80.9-461.7-238.1,63.9,107.4,110.7,189.8,229.9,254.9,42.5,23.5,88.1,41.2,135.1,53.1,104.6,26.7,215.1,25.5,320.7,4.7,189.4-37.8,365.8-137.5,496.7-279.4,62.1-67.4,114.2-144.5,150-229Z" fill="#db8918"/>
          <path d="M1678,551c292.2,162,325.3,539.8,74.1,844-251.3,304.2-691.8,419.5-984,257.5-292.2-162-325.4-539.8-74.1-844,251.2-304.2,691.8-419.5,984-257.5ZM832.6,1574.5c250.8,139,628.8,40,844.5-221,215.6-261.1,187.2-585.4-63.6-724.4-250.8-139-628.9-40.1-844.5,221-215.6,261.1-187.2,585.4,63.6,724.4h0Z" fill="#fbc977"/>
        </g>
        <g>
          <g>
            <polygon points="1994.8 423.8 2049.9 513.7 1945.8 605.2 1890.8 515.2 1994.8 423.8" fill="#f9b142"/>
            <path d="M1891.7,561.2c19.2,13.8,37.3,28.5,54.1,44h0s0,0,0,0l-55-89.9c-33.8-31-72.2-58.8-115.3-82.7-42.9-23.8-88.5-42.6-135.9-56.8l55,89.9c47.5,14.1,93,33,135.9,56.8,21.5,11.9,41.9,24.9,61.1,38.7Z" fill="#db8918"/>
            <path d="M1861.7,328.3c49.8,27.6,94.2,59.7,133.2,95.5l-104.1,91.5c-33.8-31-72.2-58.8-115.3-82.7-42.9-23.8-88.5-42.6-135.9-56.8l65-113.1c54.9,16.3,107.5,38.1,157.1,65.6Z" fill="#fbc977"/>
          </g>
          <g>
            <polygon points="2195.4 1014.8 2250.5 1104.8 2119.3 1116.5 2064.3 1026.6 2195.4 1014.8" fill="#f9b142"/>
            <path d="M2252.5,1088.4c10.7-93,4.9-188.2-20.6-278.4-3-10.8-6.4-21.6-10-32.2,0,0-55-89.9-55-89.9,35.5,104.7,43.4,217.7,28.5,327l55,89.9c.7-5.5,1.4-10.9,2-16.4Z" fill="#db8918"/>
            <path d="M2166.9,687.8c34.3,101.4,44,212.6,28.5,327l-131.2,11.8c13.4-98.9,5-195.2-24.6-282.9l127.3-55.9Z" fill="#fbc977"/>
          </g>
          <g>
            <polygon points="1450 1769.7 1505.1 1859.6 1540.5 1963.8 1485.5 1873.8 1450 1769.7" fill="#f9b142"/>
            <path d="M1485.5,1873.8c-120.8,52.8-249.7,87.7-381.1,99.7l55,89.9c131.4-11.9,260.4-46.9,381.1-99.7h0l-55-89.9Z" fill="#db8918"/>
            <path d="M1450,1769.7l35.4,104.1c-123.9,54.2-253.6,88.2-381.1,99.7l16-117.6c110.4-10,222.6-39.3,329.7-86.3Z" fill="#fbc977"/>
          </g>
          <g>
            <polygon points="806.1 1827.5 861.1 1917.4 796.2 2030.6 741.1 1940.7 806.1 1827.5" fill="#f9b142"/>
            <path d="M584,1875.1c-49.4-27.4-93.5-59.2-132.3-94.7l55,89.9c38.8,35.5,82.9,67.3,132.3,94.7,49.6,27.5,102.3,49.3,157.1,65.6l-55-89.9c-54.8-16.3-107.5-38.1-157.1-65.6Z" fill="#db8918"/>
            <path d="M806.1,1827.5l-65,113.2c-54.8-16.3-107.5-38.1-157.1-65.6-49.4-27.4-93.5-59.2-132.3-94.7l104.1-91.5c33.6,30.7,71.7,58.2,114.4,81.9,42.9,23.8,88.5,42.6,135.9,56.7Z" fill="#fbc977"/>
          </g>
          <g>
            <path d="M2076,1355c-65.5,113.5-151.1,215.1-249.3,301.7l55,89.9c98.2-86.6,183.8-188.1,249.3-301.7h0s-55-89.9-55-89.9Z" fill="#db8918"/>
            <polygon points="1826.7 1656.7 1881.7 1746.6 1800.3 1671.8 1745.2 1581.9 1826.7 1656.7" fill="#f9b142"/>
            <path d="M2076,1355c-31,53.8-67.7,106.9-110.3,158.4-42.7,51.7-89.4,99.6-139,143.3l-81.5-74.8c43-37.8,83.3-79.2,120.3-124,36.8-44.6,68.5-90.4,95.4-137l115.1,34.1Z" fill="#fbc977"/>
          </g>
        </g>
      </g>
      <g isolation="isolate">
        <path d="M1021.6,1070.9c-7.4,1.1-15-.4-21.7-3.6-1.2-.6-2.3-1.2-3.5-1.8,0,0-41.4-23.9-41.4-23.9l-97.8,22,41.4,23.9c.4.2.8.5,1.3.7,4,2.1,8.3,3.7,12.8,4.5,3.9.7,7.9.7,11.7.2.7-.1,1.5-.3,2.2-.4,0,0,97.8-22,97.8-22-.9.2-1.8.3-2.8.5Z" fill="#f9b142"/>
        <polygon points="1040 1277.6 1137.8 1255.7 1107.1 1387.4 1009.3 1409.4 1040 1277.6" fill="#db8918"/>
        <polygon points="1161.3 1347.6 1259.1 1325.7 1228.4 1457.4 1130.6 1479.4 1161.3 1347.6" fill="#db8918"/>
        <polygon points="1125.8 994.6 1223.6 972.6 1187.5 1127.7 1089.7 1149.6 1125.8 994.6" fill="#db8918"/>
        <path d="M1335.8,1198.1c-17.3,2.5-34.2-4.7-48.9-13.1,0,0-99.4-57.4-99.4-57.4,0,0-97.8,22-97.8,22,6.2,3.4,105.7,61.5,109,62.5,8.6,4.1,17.7,7.3,27.1,8.3,4.1.4,8.2.3,12.2-.3.9-.1,1.7-.3,2.6-.5l97.8-22c-.9.2-1.7.4-2.6.5Z" fill="#f9b142"/>
        <polygon points="1184.2 485.6 1096.5 435 998.8 456.9 1086.4 507.5 1130.1 532.8 1227.9 510.8 1184.2 485.6" fill="#f9b142"/>
        <polygon points="1189.3 722.5 1287.1 700.5 1252.8 847.6 1155 869.5 1189.3 722.5" fill="#db8918"/>
        <path d="M1388.8,911.4c-16.8,2.4-33.2-4.7-47.6-12.9,0,0-88.4-51-88.4-51,0,0-97.8,22-97.8,22,5.6,3.1,94.5,55,97.9,56.1,8.4,4,17.3,7.1,26.6,8.1,4.7.4,9.4.3,14-.7,0,0,97.8-22,97.8-22-.8.2-1.7.3-2.5.5Z" fill="#f9b142"/>
        <polygon points="1203.9 575.4 1301.7 553.4 1349.2 580.8 1251.4 602.8 1203.9 575.4" fill="#f9b142"/>
        <polygon points="1160.8 401 1258.6 379.1 1332.4 421.7 1234.6 443.6 1160.8 401" fill="#f9b142"/>
        <polygon points="1234.6 443.6 1332.4 421.7 1301.7 553.4 1203.9 575.4 1234.6 443.6" fill="#db8918"/>
        <g>
          <path d="M1487.8,1304.4c24.4-47.6,30.4-103.6,20.3-155.8-9.2-48-31.8-94.4-68.4-127.4l-97.8,22c37.3,33.6,60,81.2,68.9,130.2,9.5,52.1,3,107.8-21.8,154.8l97.8-22c.3-.6.6-1.2,1-1.8Z" fill="#f9b142"/>
          <path d="M1389,1328.2c-15.8,30-42,54.2-75.8,61.4l97.8-22c1.4-.3,2.8-.7,4.2-1,6.8-1.9,13.5-4.3,19.9-7.5,22.6-11.2,40-30.9,51.8-52.9l-97.8,22Z" fill="#db8918"/>
        </g>
        <polygon points="1282.1 471 1379.9 449.1 1453.7 491.7 1355.9 513.6 1282.1 471" fill="#f9b142"/>
        <polygon points="1355.9 513.6 1453.7 491.7 1422.9 623.4 1325.2 645.4 1355.9 513.6" fill="#db8918"/>
        <g>
          <path d="M1572.8,906.6c15.8-78.8-8.1-156.8-62.1-215.8-24.9-27.5-55.3-49.5-87.7-67.4l-97.8,22c33.2,18.4,64.4,41,89.6,69.5,54.8,60.9,77.2,141.6,58.5,221.8l97.8-22c.6-2.7,1.2-5.4,1.7-8.1Z" fill="#f9b142"/>
          <path d="M1473.2,936.7c-10.4,46.8-37,95-87.3,106.2l97.8-22c1.6-.4,3.2-.8,4.8-1.2,8-2.2,15.6-5.5,22.8-9.8,33.7-20.1,51.2-58.2,59.7-95.2l-97.8,22Z" fill="#db8918"/>
        </g>
        <path d="M1341.8,1043.2c60.7,54.4,85.7,150.5,67.1,230.6-27.1,116.1-111.6,152.4-228.4,85l-19.2-11.1-30.7,131.7-73.8-42.6,30.7-131.7-47.5-27.4-30.7,131.7-73.8-42.6,30.7-131.7-43.7-25.2-87.7-50.6,22.3-95.7,41.4,23.9c25.6,14.8,52.4.4,60-32l91.8-393.5c7.6-32.4-7-70.7-32.6-85.4l-41.4-23.9,22.3-95.7,87.7,50.6,43.7,25.2,30.7-131.7,73.8,42.6-30.7,131.7,47.5,27.4,30.7-131.7,73.8,42.6-30.7,131.7,10.5,6.1c112.8,65.1,163.3,174.9,137.4,285.9-19.8,85-72.9,116.8-131.2,105.8ZM1189.1,1207c45,26,77.1,15,88.7-35,11.7-50-9.2-95-54.1-120.9l-97.8-56.5-36.2,155,99.4,57.4h0ZM1189.3,722.5l-34.3,147,88.4,51c44.2,25.5,74.5,14.6,85.7-33.4,11.2-48-7.2-88.1-51.4-113.6l-88.4-51h0Z" fill="#fbc977"/>
      </g>
    </g>
  </g>
</svg>